<svg width="429" height="80" viewBox="0 0 429 80" fill="none" xmlns="http://www.w3.org/2000/svg">
<g clip-path="url(#clip0_116_2)">
<path d="M61.6938 8.36221C63.3193 8.36221 64.6371 7.04444 64.6371 5.4189C64.6371 3.79335 63.3193 2.47559 61.6938 2.47559C60.0683 2.47559 58.7505 3.79335 58.7505 5.4189C58.7505 7.04444 60.0683 8.36221 61.6938 8.36221Z" fill="#000"/>
<path d="M70.2138 12.2802C71.2302 12.2802 72.0541 11.4563 72.0541 10.4399C72.0541 9.42354 71.2302 8.59961 70.2138 8.59961C69.1975 8.59961 68.3735 9.42354 68.3735 10.4399C68.3735 11.4563 69.1975 12.2802 70.2138 12.2802Z" fill="#000"/>
<path d="M62.5221 22.2475C63.69 22.2475 64.6369 21.3006 64.6369 20.1327C64.6369 18.9647 63.69 18.0178 62.5221 18.0178C61.3541 18.0178 60.4072 18.9647 60.4072 20.1327C60.4072 21.3006 61.3541 22.2475 62.5221 22.2475Z" fill="#000"/>
<path d="M42.0103 25.0161C43.3721 25.0161 44.4761 23.9121 44.4761 22.5503C44.4761 21.1885 43.3721 20.0845 42.0103 20.0845C40.6484 20.0845 39.5444 21.1885 39.5444 22.5503C39.5444 23.9121 40.6484 25.0161 42.0103 25.0161Z" fill="#000"/>
<path d="M33.5227 41.3465C34.649 41.3465 35.5621 40.4335 35.5621 39.3072C35.5621 38.1809 34.649 37.2678 33.5227 37.2678C32.3964 37.2678 31.4834 38.1809 31.4834 39.3072C31.4834 40.4335 32.3964 41.3465 33.5227 41.3465Z" fill="#000"/>
<path d="M39.9005 43.6222C41.0657 43.6222 42.0104 42.6776 42.0104 41.5123C42.0104 40.347 41.0657 39.4023 39.9005 39.4023C38.7352 39.4023 37.7905 40.347 37.7905 41.5123C37.7905 42.6776 38.7352 43.6222 39.9005 43.6222Z" fill="#000"/>
<path d="M36.913 28.4018C37.7902 28.4018 38.5014 27.6906 38.5014 26.8134C38.5014 25.9362 37.7902 25.2251 36.913 25.2251C36.0358 25.2251 35.3247 25.9362 35.3247 26.8134C35.3247 27.6906 36.0358 28.4018 36.913 28.4018Z" fill="#000"/>
<path d="M19.5353 26.0397C20.5826 26.0397 21.4315 25.1907 21.4315 24.1435C21.4315 23.0963 20.5826 22.2473 19.5353 22.2473C18.4881 22.2473 17.6392 23.0963 17.6392 24.1435C17.6392 25.1907 18.4881 26.0397 19.5353 26.0397Z" fill="#000"/>
<path d="M17.8049 18.0167C18.9176 18.0167 19.8197 17.1146 19.8197 16.0019C19.8197 14.8891 18.9176 13.9871 17.8049 13.9871C16.6921 13.9871 15.79 14.8891 15.79 16.0019C15.79 17.1146 16.6921 18.0167 17.8049 18.0167Z" fill="#000"/>
<path d="M13.0625 10.2409C13.9397 10.2409 14.6508 9.52975 14.6508 8.65254C14.6508 7.77533 13.9397 7.06421 13.0625 7.06421C12.1852 7.06421 11.4741 7.77533 11.4741 8.65254C11.4741 9.52975 12.1852 10.2409 13.0625 10.2409Z" fill="#000"/>
<path d="M19.9385 6.02087C20.7632 6.02087 21.4318 5.35233 21.4318 4.52765C21.4318 3.70296 20.7632 3.03442 19.9385 3.03442C19.1139 3.03442 18.4453 3.70296 18.4453 4.52765C18.4453 5.35233 19.1139 6.02087 19.9385 6.02087Z" fill="#000"/>
<path d="M24.4424 7.82297C25.1885 7.82297 25.7934 7.21808 25.7934 6.47191C25.7934 5.72574 25.1885 5.12085 24.4424 5.12085C23.6962 5.12085 23.0913 5.72574 23.0913 6.47191C23.0913 7.21808 23.6962 7.82297 24.4424 7.82297Z" fill="#000"/>
<path d="M28.9947 14.6979C29.8194 14.6979 30.4879 14.0293 30.4879 13.2047C30.4879 12.38 29.8194 11.7114 28.9947 11.7114C28.17 11.7114 27.5015 12.38 27.5015 13.2047C27.5015 14.0293 28.17 14.6979 28.9947 14.6979Z" fill="#000"/>
<path d="M22.9257 32.2422C24.0649 32.2422 24.9885 31.3186 24.9885 30.1793C24.9885 29.04 24.0649 28.1165 22.9257 28.1165C21.7864 28.1165 20.8628 29.04 20.8628 30.1793C20.8628 31.3186 21.7864 32.2422 22.9257 32.2422Z" fill="#000"/>
<path d="M8.01319 25.7849C9.37503 25.7849 10.479 24.6809 10.479 23.3191C10.479 21.9573 9.37503 20.8533 8.01319 20.8533C6.65135 20.8533 5.54736 21.9573 5.54736 23.3191C5.54736 24.6809 6.65135 25.7849 8.01319 25.7849Z" fill="#000"/>
<path d="M2.20503 30.6066C3.42284 30.6066 4.41006 29.6194 4.41006 28.4016C4.41006 27.1838 3.42284 26.1965 2.20503 26.1965C0.987226 26.1965 0 27.1838 0 28.4016C0 29.6194 0.987226 30.6066 2.20503 30.6066Z" fill="#000"/>
<path d="M9.72026 38.3592C10.9511 38.3592 11.9488 37.3615 11.9488 36.1307C11.9488 34.8999 10.9511 33.9021 9.72026 33.9021C8.48946 33.9021 7.4917 34.8999 7.4917 36.1307C7.4917 37.3615 8.48946 38.3592 9.72026 38.3592Z" fill="#000"/>
<path d="M21.2308 37.2925C22.1671 37.2925 22.926 36.5335 22.926 35.5973C22.926 34.6611 22.1671 33.9021 21.2308 33.9021C20.2946 33.9021 19.5356 34.6611 19.5356 35.5973C19.5356 36.5335 20.2946 37.2925 21.2308 37.2925Z" fill="#000"/>
<path d="M32.7884 50.1178C33.5086 50.1178 34.0924 49.5339 34.0924 48.8138C34.0924 48.0936 33.5086 47.5098 32.7884 47.5098C32.0682 47.5098 31.4844 48.0936 31.4844 48.8138C31.4844 49.5339 32.0682 50.1178 32.7884 50.1178Z" fill="#000"/>
<path d="M46.9177 57.4201C47.9 57.4201 48.6962 56.6238 48.6962 55.6416C48.6962 54.6593 47.9 53.863 46.9177 53.863C45.9354 53.863 45.1392 54.6593 45.1392 55.6416C45.1392 56.6238 45.9354 57.4201 46.9177 57.4201Z" fill="#000"/>
<path d="M53.9355 51.5872C54.6031 51.5872 55.1444 51.046 55.1444 50.3783C55.1444 49.7107 54.6031 49.1694 53.9355 49.1694C53.2678 49.1694 52.7266 49.7107 52.7266 50.3783C52.7266 51.046 53.2678 51.5872 53.9355 51.5872Z" fill="#000"/>
<path d="M51.256 44.8546C52.4343 44.8546 53.3895 43.8994 53.3895 42.7211C53.3895 41.5428 52.4343 40.5876 51.256 40.5876C50.0777 40.5876 49.1226 41.5428 49.1226 42.7211C49.1226 43.8994 50.0777 44.8546 51.256 44.8546Z" fill="#000"/>
<path d="M49.5254 31.8157C50.6121 31.8157 51.4931 30.9347 51.4931 29.8479C51.4931 28.7611 50.6121 27.8801 49.5254 27.8801C48.4386 27.8801 47.5576 28.7611 47.5576 29.8479C47.5576 30.9347 48.4386 31.8157 49.5254 31.8157Z" fill="#000"/>
<path d="M61.0475 32.0049C61.9507 32.0049 62.6829 31.2727 62.6829 30.3695C62.6829 29.4663 61.9507 28.7341 61.0475 28.7341C60.1443 28.7341 59.4121 29.4663 59.4121 30.3695C59.4121 31.2727 60.1443 32.0049 61.0475 32.0049Z" fill="#000"/>
<path d="M64.2863 38.7571C65.2604 38.7571 66.0501 37.9675 66.0501 36.9933C66.0501 36.0192 65.2604 35.2295 64.2863 35.2295C63.3122 35.2295 62.5225 36.0192 62.5225 36.9933C62.5225 37.9675 63.3122 38.7571 64.2863 38.7571Z" fill="#000"/>
<path d="M72.2427 36.9934C72.9916 36.9934 73.5986 36.3863 73.5986 35.6375C73.5986 34.8886 72.9916 34.2815 72.2427 34.2815C71.4938 34.2815 70.8867 34.8886 70.8867 35.6375C70.8867 36.3863 71.4938 36.9934 72.2427 36.9934Z" fill="#000"/>
<path d="M86.5336 43.4564C87.4764 43.4564 88.2406 42.6922 88.2406 41.7494C88.2406 40.8067 87.4764 40.0425 86.5336 40.0425C85.5909 40.0425 84.8267 40.8067 84.8267 41.7494C84.8267 42.6922 85.5909 43.4564 86.5336 43.4564Z" fill="#000"/>
<path d="M75.2347 48.0322C76.374 48.0322 77.2976 47.1086 77.2976 45.9694C77.2976 44.8301 76.374 43.9065 75.2347 43.9065C74.0955 43.9065 73.1719 44.8301 73.1719 45.9694C73.1719 47.1086 74.0955 48.0322 75.2347 48.0322Z" fill="#000"/>
<path d="M79.4097 30.3695C80.0319 30.3695 80.5363 29.8652 80.5363 29.243C80.5363 28.6208 80.0319 28.1165 79.4097 28.1165C78.7876 28.1165 78.2832 28.6208 78.2832 29.243C78.2832 29.8652 78.7876 30.3695 79.4097 30.3695Z" fill="#000"/>
<path d="M85.6209 33.95C86.6096 33.95 87.4112 33.1484 87.4112 32.1597C87.4112 31.1709 86.6096 30.3694 85.6209 30.3694C84.6321 30.3694 83.8306 31.1709 83.8306 32.1597C83.8306 33.1484 84.6321 33.95 85.6209 33.95Z" fill="#000"/>
<path d="M79.184 19.3924C79.7861 19.3924 80.2743 18.9043 80.2743 18.3022C80.2743 17.7 79.7861 17.2119 79.184 17.2119C78.5819 17.2119 78.0938 17.7 78.0938 18.3022C78.0938 18.9043 78.5819 19.3924 79.184 19.3924Z" fill="#000"/>
<path d="M71.9061 30.1977C72.8407 30.1977 73.5984 29.4401 73.5984 28.5055C73.5984 27.5709 72.8407 26.8132 71.9061 26.8132C70.9715 26.8132 70.2139 27.5709 70.2139 28.5055C70.2139 29.4401 70.9715 30.1977 71.9061 30.1977Z" fill="#000"/>
<path d="M54.907 20.8148C55.9023 20.8148 56.7091 20.008 56.7091 19.0128C56.7091 18.0175 55.9023 17.2107 54.907 17.2107C53.9118 17.2107 53.105 18.0175 53.105 19.0128C53.105 20.008 53.9118 20.8148 54.907 20.8148Z" fill="#000"/>
<path d="M47.6763 12.2802C48.501 12.2802 49.1696 11.6116 49.1696 10.7869C49.1696 9.96224 48.501 9.2937 47.6763 9.2937C46.8516 9.2937 46.1831 9.96224 46.1831 10.7869C46.1831 11.6116 46.8516 12.2802 47.6763 12.2802Z" fill="#000"/>
<path d="M35.3835 9.3173C36.2282 9.3173 36.913 8.63252 36.913 7.7878C36.913 6.94308 36.2282 6.2583 35.3835 6.2583C34.5388 6.2583 33.854 6.94308 33.854 7.7878C33.854 8.63252 34.5388 9.3173 35.3835 9.3173Z" fill="#000"/>
<path d="M43.7407 3.74541C44.6965 3.74541 45.4712 2.97064 45.4712 2.01492C45.4712 1.05919 44.6965 0.284424 43.7407 0.284424C42.785 0.284424 42.0103 1.05919 42.0103 2.01492C42.0103 2.97064 42.785 3.74541 43.7407 3.74541Z" fill="#000"/>
<path d="M30.2752 22.7592C31.205 22.7592 31.9587 22.0055 31.9587 21.0758C31.9587 20.146 31.205 19.3923 30.2752 19.3923C29.3455 19.3923 28.5918 20.146 28.5918 21.0758C28.5918 22.0055 29.3455 22.7592 30.2752 22.7592Z" fill="#000"/>
<path d="M22.878 20.8159C23.5722 20.8159 24.135 20.2531 24.135 19.5589C24.135 18.8648 23.5722 18.302 22.878 18.302C22.1838 18.302 21.6211 18.8648 21.6211 19.5589C21.6211 20.2531 22.1838 20.8159 22.878 20.8159Z" fill="#000"/>
<path d="M43.9063 36.557C44.7965 36.557 45.5182 35.8353 45.5182 34.9451C45.5182 34.0549 44.7965 33.3333 43.9063 33.3333C43.0161 33.3333 42.2944 34.0549 42.2944 34.9451C42.2944 35.8353 43.0161 36.557 43.9063 36.557Z" fill="#000"/>
<path d="M55.7131 39.5543C56.4203 39.5543 56.9936 38.9811 56.9936 38.2739C56.9936 37.5667 56.4203 36.9934 55.7131 36.9934C55.0059 36.9934 54.4326 37.5667 54.4326 38.2739C54.4326 38.9811 55.0059 39.5543 55.7131 39.5543Z" fill="#000"/>
<path d="M62.6666 44.2055C63.5611 44.2055 64.2863 43.4803 64.2863 42.5858C64.2863 41.6912 63.5611 40.9661 62.6666 40.9661C61.772 40.9661 61.0469 41.6912 61.0469 42.5858C61.0469 43.4803 61.772 44.2055 62.6666 44.2055Z" fill="#000"/>
<path d="M65.7607 59.8005C66.5751 59.8005 67.2353 59.1403 67.2353 58.3259C67.2353 57.5115 66.5751 56.8513 65.7607 56.8513C64.9463 56.8513 64.2861 57.5115 64.2861 58.3259C64.2861 59.1403 64.9463 59.8005 65.7607 59.8005Z" fill="#000"/>
<path d="M45.0921 65.8126C45.7468 65.8126 46.2775 65.2819 46.2775 64.6273C46.2775 63.9726 45.7468 63.4419 45.0921 63.4419C44.4374 63.4419 43.9067 63.9726 43.9067 64.6273C43.9067 65.2819 44.4374 65.8126 45.0921 65.8126Z" fill="#000"/>
<path d="M50.0233 78.0929C50.5469 78.0929 50.9714 77.6684 50.9714 77.1448C50.9714 76.6211 50.5469 76.1967 50.0233 76.1967C49.4997 76.1967 49.0752 76.6211 49.0752 77.1448C49.0752 77.6684 49.4997 78.0929 50.0233 78.0929Z" fill="#000"/>
<path d="M53.6032 79.9429C54.2449 79.9429 54.7651 79.4228 54.7651 78.7811C54.7651 78.1394 54.2449 77.6193 53.6032 77.6193C52.9616 77.6193 52.4414 78.1394 52.4414 78.7811C52.4414 79.4228 52.9616 79.9429 53.6032 79.9429Z" fill="#000"/>
<path d="M54.3148 72.6876C54.7074 72.6876 55.0257 72.3694 55.0257 71.9768C55.0257 71.5842 54.7074 71.266 54.3148 71.266C53.9223 71.266 53.604 71.5842 53.604 71.9768C53.604 72.3694 53.9223 72.6876 54.3148 72.6876Z" fill="#000"/>
<path d="M51.849 65.5753C52.4381 65.5753 52.9157 65.0978 52.9157 64.5086C52.9157 63.9195 52.4381 63.4419 51.849 63.4419C51.2598 63.4419 50.7822 63.9195 50.7822 64.5086C50.7822 65.0978 51.2598 65.5753 51.849 65.5753Z" fill="#000"/>
<path d="M52.3707 60.08C52.8553 60.08 53.2482 59.6871 53.2482 59.2025C53.2482 58.7178 52.8553 58.325 52.3707 58.325C51.886 58.325 51.4932 58.7178 51.4932 59.2025C51.4932 59.6871 51.886 60.08 52.3707 60.08Z" fill="#000"/>
<path d="M44.2626 61.6202C44.9303 61.6202 45.4715 61.0789 45.4715 60.4113C45.4715 59.7436 44.9303 59.2024 44.2626 59.2024C43.595 59.2024 43.0537 59.7436 43.0537 60.4113C43.0537 61.0789 43.595 61.6202 44.2626 61.6202Z" fill="#000"/>
<path d="M42.8162 50.0225C43.2613 50.0225 43.6221 49.6617 43.6221 49.2166C43.6221 48.7715 43.2613 48.4106 42.8162 48.4106C42.3711 48.4106 42.0103 48.7715 42.0103 49.2166C42.0103 49.6617 42.3711 50.0225 42.8162 50.0225Z" fill="#000"/>
<path d="M26.9034 42.0573C27.5949 42.0573 28.1554 41.4967 28.1554 40.8053C28.1554 40.1138 27.5949 39.5532 26.9034 39.5532C26.2119 39.5532 25.6514 40.1138 25.6514 40.8053C25.6514 41.4967 26.2119 42.0573 26.9034 42.0573Z" fill="#000"/>
<path d="M27.9583 32.4793C28.5409 32.4793 29.0132 32.007 29.0132 31.4243C29.0132 30.8417 28.5409 30.3694 27.9583 30.3694C27.3756 30.3694 26.9033 30.8417 26.9033 31.4243C26.9033 32.007 27.3756 32.4793 27.9583 32.4793Z" fill="#000"/>
<path d="M36.9013 13.2046C37.772 13.2046 38.4778 12.4988 38.4778 11.6281C38.4778 10.7574 37.772 10.0515 36.9013 10.0515C36.0306 10.0515 35.3247 10.7574 35.3247 11.6281C35.3247 12.4988 36.0306 13.2046 36.9013 13.2046Z" fill="#000"/>
<path d="M34.2815 2.0864C34.8576 2.0864 35.3247 1.61934 35.3247 1.0432C35.3247 0.467055 34.8576 0 34.2815 0C33.7053 0 33.2383 0.467055 33.2383 1.0432C33.2383 1.61934 33.7053 2.0864 34.2815 2.0864Z" fill="#000"/>
<path d="M81.6617 25.2965C82.2839 25.2965 82.7882 24.7922 82.7882 24.17C82.7882 23.5478 82.2839 23.0435 81.6617 23.0435C81.0395 23.0435 80.5352 23.5478 80.5352 24.17C80.5352 24.7922 81.0395 25.2965 81.6617 25.2965Z" fill="#000"/>
<path d="M82.3136 48.0792C83.1519 48.0792 83.8314 47.3997 83.8314 46.5614C83.8314 45.7232 83.1519 45.0437 82.3136 45.0437C81.4754 45.0437 80.7959 45.7232 80.7959 46.5614C80.7959 47.3997 81.4754 48.0792 82.3136 48.0792Z" fill="#000"/>
<path d="M69.6247 39.3073C70.2637 39.3073 70.7816 38.7893 70.7816 38.1503C70.7816 37.5114 70.2637 36.9934 69.6247 36.9934C68.9857 36.9934 68.4678 37.5114 68.4678 38.1503C68.4678 38.7893 68.9857 39.3073 69.6247 39.3073Z" fill="#000"/>
<path d="M59.3526 25.2965C59.9748 25.2965 60.4791 24.7922 60.4791 24.17C60.4791 23.5478 59.9748 23.0435 59.3526 23.0435C58.7304 23.0435 58.2261 23.5478 58.2261 24.17C58.2261 24.7922 58.7304 25.2965 59.3526 25.2965Z" fill="#000"/>
<path d="M58.7839 13.6076C59.5631 13.6076 60.1948 12.976 60.1948 12.1968C60.1948 11.4176 59.5631 10.7859 58.7839 10.7859C58.0047 10.7859 57.373 11.4176 57.373 12.1968C57.373 12.976 58.0047 13.6076 58.7839 13.6076Z" fill="#000"/>
<path d="M72.2427 22.1043C72.9916 22.1043 73.5986 21.4972 73.5986 20.7483C73.5986 19.9994 72.9916 19.3923 72.2427 19.3923C71.4938 19.3923 70.8867 19.9994 70.8867 20.7483C70.8867 21.4972 71.4938 22.1043 72.2427 22.1043Z" fill="#000"/>
<path d="M41.0759 54.6503C41.9217 54.6503 42.6074 53.9647 42.6074 53.1189C42.6074 52.2731 41.9217 51.5874 41.0759 51.5874C40.2301 51.5874 39.5444 52.2731 39.5444 53.1189C39.5444 53.9647 40.2301 54.6503 41.0759 54.6503Z" fill="#000"/>
<path d="M18.9023 41.7494C19.5088 41.7494 20.0004 41.2578 20.0004 40.6513C20.0004 40.0449 19.5088 39.5532 18.9023 39.5532C18.2958 39.5532 17.8042 40.0449 17.8042 40.6513C17.8042 41.2578 18.2958 41.7494 18.9023 41.7494Z" fill="#000"/>
<path d="M12.9566 42.0573C13.5133 42.0573 13.9645 41.6061 13.9645 41.0494C13.9645 40.4928 13.5133 40.0415 12.9566 40.0415C12.4 40.0415 11.9487 40.4928 11.9487 41.0494C11.9487 41.6061 12.4 42.0573 12.9566 42.0573Z" fill="#000"/>
<path d="M8.60647 15.4331C9.2216 15.4331 9.72026 14.9345 9.72026 14.3194C9.72026 13.7042 9.2216 13.2056 8.60647 13.2056C7.99134 13.2056 7.49268 13.7042 7.49268 14.3194C7.49268 14.9345 7.99134 15.4331 8.60647 15.4331Z" fill="#000"/>
<path d="M53.5795 2.65506C54.3127 2.65506 54.907 2.0607 54.907 1.32753C54.907 0.594355 54.3127 0 53.5795 0C52.8463 0 52.252 0.594355 52.252 1.32753C52.252 2.0607 52.8463 2.65506 53.5795 2.65506Z" fill="#000"/>
<path d="M55.1445 57.5886C55.5517 57.5886 55.8818 57.2585 55.8818 56.8513C55.8818 56.4441 55.5517 56.114 55.1445 56.114C54.7373 56.114 54.4072 56.4441 54.4072 56.8513C54.4072 57.2585 54.7373 57.5886 55.1445 57.5886Z" fill="#000"/>
<path d="M53.6043 78.9527C53.5994 78.9527 53.5926 78.9527 53.5867 78.9517C53.4906 78.9419 53.422 78.8566 53.4328 78.7615L54.1446 71.9572C54.1553 71.864 54.2446 71.7944 54.3328 71.8032C54.4289 71.813 54.4975 71.8983 54.4867 71.9935L53.7749 78.7978C53.7661 78.887 53.6916 78.9527 53.6043 78.9527Z" fill="#000"/>
<path d="M50.0247 77.3173C49.9855 77.3173 49.9463 77.3046 49.9139 77.2771C49.8414 77.2163 49.8306 77.1075 49.8924 77.034L54.1838 71.865C54.2446 71.7915 54.3524 71.7807 54.426 71.8425C54.4985 71.9033 54.5093 72.0121 54.4475 72.0856L50.1561 77.2546C50.1228 77.2967 50.0737 77.3173 50.0247 77.3173Z" fill="#000"/>
<path d="M50.0247 77.3172C49.9561 77.3172 49.8914 77.276 49.8639 77.2083L44.9313 64.69C44.896 64.6007 44.9391 64.5017 45.0283 64.4664C45.1136 64.4311 45.2166 64.4743 45.2519 64.5635L50.1845 77.0819C50.2198 77.1711 50.1767 77.2701 50.0874 77.3054C50.0678 77.3132 50.0463 77.3172 50.0247 77.3172Z" fill="#000"/>
<path d="M45.092 64.7999C44.9979 64.7999 44.9204 64.7244 44.9194 64.6303C44.9185 64.5352 44.994 64.4568 45.0891 64.4548L51.8453 64.3362C51.9542 64.3411 52.0189 64.4107 52.0208 64.5058C52.0218 64.6009 51.9463 64.6793 51.8512 64.6813L45.0949 64.7999C45.093 64.7999 45.092 64.7999 45.092 64.7999Z" fill="#000"/>
<path d="M54.3148 72.1484C54.2422 72.1484 54.1746 72.1023 54.1501 72.0297L51.6832 64.5617C51.6538 64.4715 51.7038 64.3734 51.794 64.344C51.8842 64.3126 51.9823 64.3636 52.0127 64.4538L54.4795 71.9219C54.5089 72.0121 54.4589 72.1101 54.3687 72.1396C54.351 72.1464 54.3324 72.1484 54.3148 72.1484Z" fill="#000"/>
<path d="M54.315 72.1483C54.2777 72.1483 54.2395 72.1365 54.2071 72.111L44.9841 64.7616C44.9095 64.7027 44.8978 64.5939 44.9576 64.5194C45.0164 64.4449 45.1243 64.4321 45.1998 64.4929L54.4228 71.8424C54.4974 71.9012 54.5091 72.01 54.4493 72.0845C54.416 72.1267 54.366 72.1483 54.315 72.1483Z" fill="#000"/>
<path d="M53.6039 78.9527C53.5461 78.9527 53.4882 78.9232 53.4559 78.8693L44.9436 64.7155C44.8956 64.6342 44.9211 64.5273 45.0025 64.4793C45.0848 64.4312 45.1907 64.4557 45.2397 64.5381L53.752 78.6918C53.8 78.7732 53.7745 78.8801 53.6932 78.9281C53.6637 78.9448 53.6343 78.9527 53.6039 78.9527Z" fill="#000"/>
<path d="M53.6039 78.9526C53.5794 78.9526 53.5558 78.9477 53.5323 78.937L49.9527 77.3016C49.8664 77.2614 49.8272 77.1594 49.8674 77.0731C49.9066 76.9868 50.0125 76.9486 50.0949 76.9878L53.6745 78.6232C53.7608 78.6634 53.8 78.7654 53.7598 78.8517C53.7313 78.9154 53.6686 78.9526 53.6039 78.9526Z" fill="#000"/>
<path d="M50.0246 77.3172C49.9393 77.3172 49.8667 77.2554 49.853 77.1701L46.7459 55.6669C46.7322 55.5728 46.7989 55.4845 46.893 55.4718C46.9861 55.4561 47.0734 55.5228 47.0881 55.6169L50.1952 77.1201C50.2089 77.2142 50.1422 77.3025 50.0481 77.3152C50.0402 77.3162 50.0324 77.3172 50.0246 77.3172Z" fill="#000"/>
<path d="M52.3705 59.3751C52.3381 59.3751 52.3058 59.3663 52.2764 59.3466L46.8231 55.7857C46.7437 55.7337 46.7211 55.6268 46.7731 55.5474C46.8231 55.469 46.929 55.4445 47.0113 55.4974L52.4646 59.0584C52.544 59.1104 52.5666 59.2172 52.5146 59.2966C52.4823 59.3476 52.4273 59.3751 52.3705 59.3751Z" fill="#000"/>
<path d="M51.8481 64.6813C51.8432 64.6813 51.8373 64.6813 51.8305 64.6804C51.7364 64.6706 51.6677 64.5862 51.6765 64.4921L52.1991 59.1869C52.207 59.0977 52.2825 59.031 52.3707 59.031C52.3756 59.031 52.3815 59.031 52.3883 59.032C52.4825 59.0418 52.5511 59.1261 52.5423 59.2202L52.0197 64.5254C52.0109 64.6147 51.9354 64.6813 51.8481 64.6813Z" fill="#000"/>
<path d="M50.0244 77.3172C50.0166 77.3172 50.0088 77.3162 49.9999 77.3153C49.9058 77.3015 49.8391 77.2143 49.8529 77.1202L51.6775 64.4831C51.6922 64.389 51.7745 64.3174 51.8726 64.338C51.9667 64.3518 52.0334 64.439 52.0197 64.5331L50.195 77.1702C50.1813 77.2555 50.1088 77.3172 50.0244 77.3172Z" fill="#000"/>
<path d="M53.6042 78.9526C53.5179 78.9526 53.4434 78.8889 53.4326 78.8007L51.6776 64.5283C51.6658 64.4341 51.7325 64.3479 51.8276 64.3361C51.9345 64.3283 52.008 64.392 52.0198 64.4861L53.7748 78.7585C53.7866 78.8526 53.7199 78.9389 53.6248 78.9507C53.6169 78.9527 53.6111 78.9526 53.6042 78.9526Z" fill="#000"/>
<path d="M51.8482 64.6813C51.8198 64.6813 51.7933 64.6745 51.7658 64.6607L44.1791 60.5644C44.0958 60.5193 44.0644 60.4144 44.1095 60.3311C44.1566 60.2477 44.2595 60.2183 44.3438 60.2615L51.9305 64.3578C52.0139 64.4029 52.0453 64.5078 52.0002 64.5911C51.9678 64.648 51.909 64.6813 51.8482 64.6813Z" fill="#000"/>
<path d="M44.2624 60.5848C44.234 60.5848 44.2046 60.5779 44.1791 60.5632C44.0957 60.5172 44.0663 60.4113 44.1114 60.3279L46.7665 55.5571C46.8135 55.4737 46.9214 55.4424 47.0008 55.4904C47.0841 55.5365 47.1136 55.6424 47.0685 55.7257L44.4134 60.4966C44.3801 60.5525 44.3222 60.5848 44.2624 60.5848Z" fill="#000"/>
<path d="M46.9173 55.8141C46.8643 55.8141 46.8133 55.7896 46.778 55.7445C46.7212 55.668 46.7378 55.5602 46.8133 55.5033L53.8314 50.2648C53.9079 50.2099 54.0157 50.2236 54.0736 50.3001C54.1304 50.3765 54.1138 50.4844 54.0383 50.5413L47.0202 55.7798C46.9898 55.8024 46.9535 55.8141 46.9173 55.8141Z" fill="#000"/>
<path d="M65.7598 58.4975C65.7265 58.4975 65.6941 58.4877 65.6637 58.4681L53.8385 50.5461C53.7591 50.4931 53.7375 50.3853 53.7915 50.3069C53.8424 50.2265 53.9532 50.2069 54.0297 50.2588L65.8549 58.1808C65.9343 58.2338 65.9559 58.3416 65.902 58.4201C65.8706 58.4711 65.8157 58.4975 65.7598 58.4975Z" fill="#000"/>
<path d="M65.7599 58.4976C65.752 58.4976 65.7442 58.4967 65.7354 58.4967L55.121 57.0221C55.0269 57.0083 54.9602 56.9221 54.974 56.827C54.9877 56.7319 55.074 56.672 55.1691 56.6799L65.7844 58.1545C65.8785 58.1682 65.9452 58.2545 65.9315 58.3496C65.9187 58.4349 65.8452 58.4976 65.7599 58.4976Z" fill="#000"/>
<path d="M52.3708 59.3752C52.3227 59.3752 52.2737 59.3546 52.2384 59.3144C52.1776 59.2418 52.1854 59.132 52.259 59.0712L55.0327 56.7191C55.1052 56.6583 55.215 56.6671 55.2768 56.7387C55.3376 56.8113 55.3298 56.9211 55.2562 56.9819L52.4825 59.334C52.4502 59.3624 52.41 59.3752 52.3708 59.3752Z" fill="#000"/>
<path d="M52.3708 59.3751C52.361 59.3751 52.3502 59.3741 52.3414 59.3721C52.2472 59.3555 52.1855 59.2653 52.2012 59.1721L53.765 50.3716C53.7807 50.2785 53.8689 50.2089 53.964 50.2324C54.0581 50.2491 54.1199 50.3393 54.1042 50.4324L52.5404 59.2329C52.5257 59.3172 52.4531 59.3751 52.3708 59.3751Z" fill="#000"/>
<path d="M45.0919 64.7999C45.0606 64.7999 45.0282 64.7921 45.0007 64.7734C44.9203 64.7234 44.8958 64.6176 44.9458 64.5362L53.7895 50.3118C53.8405 50.2314 53.9454 50.203 54.0277 50.2569C54.1081 50.3069 54.1327 50.4128 54.0827 50.4942L45.239 64.7185C45.2047 64.7705 45.1498 64.7999 45.0919 64.7999Z" fill="#000"/>
<path d="M45.092 64.7998C45.0116 64.7998 44.938 64.7429 44.9224 64.6605L44.0929 60.4456C44.0752 60.3525 44.136 60.2613 44.2292 60.2436C44.3341 60.223 44.4135 60.2868 44.4321 60.3799L45.2616 64.5949C45.2792 64.688 45.2184 64.7792 45.1253 64.7968C45.1135 64.7978 45.1028 64.7998 45.092 64.7998Z" fill="#000"/>
<path d="M44.2622 60.585C44.1965 60.585 44.1328 60.5467 44.1043 60.481L40.9179 53.1875C40.8786 53.1002 40.9188 52.9992 41.0071 52.96C41.0904 52.9227 41.1944 52.961 41.2336 53.0492L44.42 60.3428C44.4593 60.43 44.4191 60.531 44.3308 60.5703C44.3092 60.5801 44.2847 60.585 44.2622 60.585Z" fill="#000"/>
<path d="M41.0759 53.2913C41.0514 53.2913 41.0288 53.2864 41.0063 53.2766C40.919 53.2374 40.8798 53.1354 40.919 53.0492L42.6593 49.148C42.6985 49.0587 42.8005 49.0215 42.8868 49.0607C42.9741 49.0999 43.0133 49.2019 42.9741 49.2882L41.2338 53.1894C41.2053 53.2531 41.1416 53.2913 41.0759 53.2913Z" fill="#000"/>
<path d="M42.816 49.3891C42.765 49.3891 42.714 49.3666 42.6797 49.3215C42.6209 49.246 42.6356 49.1371 42.7111 49.0793L51.1518 42.5838C51.2263 42.525 51.3351 42.5387 51.393 42.6152C51.4518 42.6907 51.4371 42.7995 51.3616 42.8574L42.9209 49.3528C42.8905 49.3783 42.8523 49.3891 42.816 49.3891Z" fill="#000"/>
<path d="M51.257 42.8937C51.1629 42.8937 51.0855 42.8173 51.0845 42.7232C51.0835 42.628 51.16 42.5496 51.2541 42.5486L62.6636 42.4133H62.6665C62.7607 42.4133 62.8381 42.4898 62.8391 42.5839C62.8401 42.679 62.7636 42.7575 62.6695 42.7584L51.26 42.8937C51.258 42.8937 51.257 42.8937 51.257 42.8937Z" fill="#000"/>
<path d="M75.2336 46.1409C75.2189 46.1409 75.2042 46.1389 75.1895 46.135L62.6221 42.7524C62.529 42.7279 62.475 42.6328 62.4996 42.5407C62.526 42.4495 62.6221 42.3956 62.7113 42.4191L75.2787 45.8016C75.3719 45.8261 75.4258 45.9212 75.4013 46.0134C75.3787 46.0909 75.3101 46.1409 75.2336 46.1409Z" fill="#000"/>
<path d="M65.7596 58.4975C65.7233 58.4975 65.685 58.4857 65.6546 58.4622C65.5791 58.4043 65.5644 58.2955 65.6223 58.22L75.0964 45.8634C75.1552 45.7869 75.2631 45.7722 75.3385 45.832C75.414 45.8899 75.4287 45.9987 75.3709 46.0742L65.8968 58.4308C65.8625 58.4749 65.8115 58.4975 65.7596 58.4975Z" fill="#000"/>
<path d="M65.7596 58.4975C65.6792 58.4975 65.6057 58.4406 65.59 58.3583L62.4967 42.6191C62.4791 42.526 62.5398 42.4348 62.633 42.4171C62.735 42.3985 62.8173 42.4603 62.8359 42.5534L65.9293 58.2926C65.9469 58.3857 65.8861 58.4769 65.793 58.4945C65.7812 58.4965 65.7704 58.4975 65.7596 58.4975Z" fill="#000"/>
<path d="M53.9357 50.5756C53.8886 50.5756 53.8415 50.556 53.8072 50.5187C53.7425 50.4472 53.7494 50.3393 53.821 50.2746L62.5528 42.4575C62.6215 42.3937 62.7332 42.3996 62.795 42.4712C62.8597 42.5428 62.8529 42.6506 62.7813 42.7153L54.0494 50.5325C54.018 50.5609 53.9759 50.5756 53.9357 50.5756Z" fill="#000"/>
<path d="M53.9355 50.5754C53.864 50.5754 53.7983 50.5313 53.7728 50.4597L51.0942 42.7779C51.0628 42.6887 51.1099 42.5896 51.201 42.5583C51.2922 42.5288 51.3883 42.5739 51.4207 42.6651L54.0993 50.3469C54.1306 50.4362 54.0836 50.5352 53.9924 50.5666C53.9728 50.5715 53.9542 50.5754 53.9355 50.5754Z" fill="#000"/>
<path d="M82.3139 46.7341C82.31 46.7341 82.3041 46.7341 82.2992 46.7331L75.2194 46.1399C75.1252 46.1321 75.0546 46.0487 75.0615 45.9536C75.0693 45.8595 75.1331 45.782 75.2488 45.7958L82.3286 46.3889C82.4227 46.3968 82.4933 46.4801 82.4864 46.5752C82.4786 46.6664 82.4031 46.7341 82.3139 46.7341Z" fill="#000"/>
<path d="M82.3137 46.7341C82.2735 46.7341 82.2333 46.7203 82.2009 46.6909C82.1283 46.6282 82.1215 46.5193 82.1852 46.4478L86.4051 41.6357C86.4659 41.5641 86.5766 41.5573 86.6472 41.62C86.7198 41.6828 86.7267 41.7916 86.6629 41.8632L82.4431 46.6752C82.4097 46.7135 82.3627 46.7341 82.3137 46.7341Z" fill="#000"/>
<path d="M86.5335 41.9221C86.4463 41.9221 86.3708 41.8554 86.3619 41.7662L85.4501 32.1754C85.4403 32.0803 85.5109 31.997 85.605 31.9872C85.6962 31.9715 85.7845 32.047 85.7923 32.1431L86.7041 41.7338C86.7139 41.8289 86.6433 41.9123 86.5492 41.9221C86.5443 41.9221 86.5384 41.9221 86.5335 41.9221Z" fill="#000"/>
<path d="M85.6215 32.3313C85.597 32.3313 85.5715 32.3264 85.549 32.3156L79.3368 29.3997C79.2505 29.3595 79.2133 29.2566 79.2535 29.1703C79.2956 29.085 79.3986 29.0487 79.4829 29.087L85.695 32.0028C85.7813 32.043 85.8186 32.146 85.7784 32.2322C85.748 32.295 85.6852 32.3313 85.6215 32.3313Z" fill="#000"/>
<path d="M79.4084 29.4155C79.3859 29.4155 79.3614 29.4106 79.3388 29.4008C79.2515 29.3626 79.2123 29.2596 79.2515 29.1733L81.5046 24.0995C81.5419 24.0132 81.6438 23.9711 81.7321 24.0122C81.8193 24.0505 81.8586 24.1534 81.8193 24.2397L79.5663 29.3135C79.5378 29.3773 79.4751 29.4155 79.4084 29.4155Z" fill="#000"/>
<path d="M81.6615 24.3427C81.5938 24.3427 81.5311 24.3025 81.5026 24.2378L79.025 18.3698C78.9888 18.2816 79.029 18.1806 79.1162 18.1433C79.2035 18.107 79.3045 18.1482 79.3427 18.2345L81.8203 24.1025C81.8566 24.1907 81.8164 24.2917 81.7291 24.329C81.7076 24.3378 81.684 24.3427 81.6615 24.3427Z" fill="#000"/>
<path d="M72.2433 20.9209C72.1717 20.9209 72.106 20.8768 72.0805 20.8062C72.0492 20.717 72.0962 20.618 72.1854 20.5866L79.126 18.1404C79.2231 18.107 79.3143 18.1561 79.3466 18.2453C79.378 18.3345 79.331 18.4335 79.2417 18.4649L72.3011 20.9111C72.2805 20.918 72.2619 20.9209 72.2433 20.9209Z" fill="#000"/>
<path d="M72.2437 20.9208C72.1633 20.9208 72.0898 20.8639 72.0741 20.7816L70.0455 10.4731C70.0279 10.38 70.0887 10.2888 70.1818 10.2711C70.2838 10.2535 70.3661 10.3133 70.3848 10.4074L72.4133 20.7159C72.431 20.809 72.3702 20.9002 72.277 20.9179C72.2653 20.9198 72.2545 20.9208 72.2437 20.9208Z" fill="#000"/>
<path d="M62.5221 20.3042C62.4848 20.3042 62.4466 20.2924 62.4142 20.2669C62.3397 20.2081 62.328 20.0992 62.3878 20.0247L70.0794 10.333C70.1372 10.2585 70.2461 10.2457 70.3216 10.3046C70.3961 10.3634 70.4078 10.4722 70.348 10.5467L62.6564 20.2385C62.6231 20.2826 62.574 20.3042 62.5221 20.3042Z" fill="#000"/>
<path d="M62.5223 20.3041C62.4311 20.3041 62.3556 20.2335 62.3497 20.1413L61.5212 5.4287C61.5163 5.3336 61.5889 5.25222 61.684 5.24634C61.7732 5.2532 61.8605 5.31399 61.8663 5.40909L62.6948 20.1217C62.7007 20.2168 62.6272 20.2982 62.5321 20.3041C62.5291 20.3041 62.5252 20.3041 62.5223 20.3041Z" fill="#000"/>
<path d="M58.7986 12.3693C58.776 12.3693 58.7525 12.3644 58.7309 12.3556C58.6436 12.3183 58.6025 12.2164 58.6397 12.1291L61.535 5.35124C61.5722 5.26398 61.6762 5.22476 61.7615 5.26104C61.8487 5.2983 61.8899 5.40027 61.8527 5.48753L58.9574 12.2654C58.9299 12.3311 58.8662 12.3693 58.7986 12.3693Z" fill="#000"/>
<path d="M54.908 19.1854C54.8786 19.1854 54.8502 19.1776 54.8227 19.1629C54.7394 19.1158 54.711 19.0109 54.758 18.9276L58.6484 12.1115C58.6945 12.0282 58.8024 11.9997 58.8828 12.0478C58.9661 12.0948 58.9945 12.1997 58.9475 12.2831L55.0571 19.0992C55.0267 19.155 54.9669 19.1854 54.908 19.1854Z" fill="#000"/>
<path d="M58.7985 12.3693C58.7338 12.3693 58.673 12.334 58.6436 12.2713L53.4247 1.40199C53.3825 1.31571 53.4197 1.21276 53.505 1.17158C53.5854 1.13236 53.6923 1.1657 53.7345 1.25198L58.9534 12.1222C58.9956 12.2085 58.9583 12.3115 58.873 12.3526C58.8495 12.3644 58.824 12.3693 58.7985 12.3693Z" fill="#000"/>
<path d="M61.6937 5.59151C61.6682 5.59151 61.6408 5.58562 61.6153 5.57288L53.5011 1.48048C53.4158 1.43734 53.3824 1.33341 53.4256 1.24909C53.4677 1.16379 53.5697 1.13242 53.657 1.17262L61.7712 5.26502C61.8565 5.30816 61.8898 5.41208 61.8467 5.4964C61.8182 5.55719 61.7574 5.59151 61.6937 5.59151Z" fill="#000"/>
<path d="M70.214 10.6125C70.1846 10.6125 70.1532 10.6046 70.1268 10.5889L61.6067 5.56806C61.5243 5.52002 61.4978 5.41413 61.5459 5.33177C61.5929 5.2504 61.7008 5.22196 61.7812 5.27001L70.3013 10.2909C70.3836 10.3389 70.4101 10.4448 70.3621 10.5272C70.3297 10.5821 70.2738 10.6125 70.214 10.6125Z" fill="#000"/>
<path d="M79.1842 18.4747C79.144 18.4747 79.1038 18.4609 79.0714 18.4325L70.1013 10.5703C70.0287 10.5066 70.0219 10.3987 70.0856 10.3261C70.1464 10.2556 70.2572 10.2487 70.3278 10.3105L79.2979 18.1727C79.3705 18.2364 79.3773 18.3443 79.3136 18.4168C79.2803 18.4541 79.2322 18.4747 79.1842 18.4747Z" fill="#000"/>
<path d="M85.6215 32.3312C85.5578 32.3312 85.498 32.2959 85.4666 32.2351L81.5066 24.2454C81.4644 24.1601 81.4997 24.0562 81.585 24.014C81.6713 23.9738 81.7733 24.0072 81.8164 24.0915L85.7764 32.0812C85.8186 32.1665 85.7833 32.2704 85.698 32.3126C85.6735 32.3253 85.647 32.3312 85.6215 32.3312Z" fill="#000"/>
<path d="M43.7409 2.18742C43.6507 2.18742 43.5752 2.11781 43.5683 2.02663C43.5615 1.93152 43.634 1.84917 43.7291 1.8423L53.5679 1.15501C53.6787 1.14324 53.7454 1.21972 53.7523 1.31482C53.7591 1.40992 53.6866 1.49228 53.5915 1.49914L43.7526 2.18644C43.7487 2.18742 43.7448 2.18742 43.7409 2.18742Z" fill="#000"/>
<path d="M43.7409 2.18749C43.736 2.18749 43.7292 2.18749 43.7233 2.18651L34.2639 1.21488C34.1698 1.20508 34.0992 1.11978 34.11 1.02565C34.1198 0.93055 34.21 0.856036 34.2982 0.871723L43.7576 1.84335C43.8517 1.85315 43.9223 1.93845 43.9115 2.03258C43.9037 2.1218 43.8282 2.18749 43.7409 2.18749Z" fill="#000"/>
<path d="M19.9383 4.70018C19.8598 4.70018 19.7902 4.64724 19.7716 4.56782C19.749 4.47566 19.8049 4.38252 19.8981 4.35996L34.2411 0.875447C34.3323 0.850936 34.4274 0.909763 34.4489 1.00291C34.4715 1.09507 34.4156 1.18821 34.3224 1.21076L19.9794 4.69528C19.9657 4.69822 19.952 4.70018 19.9383 4.70018Z" fill="#000"/>
<path d="M13.0626 8.8163C13.0048 8.8163 12.947 8.78689 12.9146 8.73198C12.8666 8.6506 12.893 8.54471 12.9734 8.49569L19.8493 4.37976C19.9317 4.32976 20.0366 4.35721 20.0866 4.43957C20.1346 4.52095 20.1082 4.62684 20.0278 4.67586L13.1519 8.79179C13.1234 8.80747 13.0921 8.8163 13.0626 8.8163Z" fill="#000"/>
<path d="M8.60539 14.492C8.56813 14.492 8.52989 14.4803 8.49852 14.4548C8.42302 14.3959 8.41126 14.2881 8.4691 14.2126L12.9262 8.53677C12.987 8.46128 13.0958 8.44853 13.1684 8.50736C13.2439 8.56619 13.2557 8.67404 13.1978 8.74953L8.74069 14.4254C8.70637 14.4685 8.65637 14.492 8.60539 14.492Z" fill="#000"/>
<path d="M8.01313 23.4916C8.00921 23.4916 8.00529 23.4916 8.00235 23.4907C7.90626 23.4848 7.83567 23.4024 7.84057 23.3073L8.43375 14.3078C8.44061 14.2166 8.5161 14.147 8.6063 14.147C8.61023 14.147 8.61415 14.147 8.61709 14.148C8.71317 14.1538 8.78377 14.2362 8.77886 14.3313L8.18569 23.3308C8.17883 23.421 8.10333 23.4916 8.01313 23.4916Z" fill="#000"/>
<path d="M2.20508 28.5742C2.15704 28.5742 2.109 28.5536 2.07566 28.5153C2.01193 28.4428 2.02075 28.3339 2.09135 28.2712L7.89953 23.1885C7.9711 23.1258 8.07895 23.1336 8.1417 23.2042C8.20543 23.2768 8.19661 23.3856 8.12602 23.4484L2.31783 28.531C2.28548 28.5594 2.24528 28.5742 2.20508 28.5742Z" fill="#000"/>
<path d="M9.72031 36.3031C9.67619 36.3031 9.63011 36.2855 9.59678 36.2502L2.08163 28.5213C2.01594 28.4537 2.01692 28.3439 2.08555 28.2772C2.15516 28.2125 2.26301 28.2135 2.32968 28.2811L9.84483 36.01C9.91052 36.0776 9.90954 36.1875 9.84091 36.2541C9.80659 36.2865 9.76345 36.3031 9.72031 36.3031Z" fill="#000"/>
<path d="M12.9559 41.2221C12.899 41.2221 12.8451 41.1947 12.8117 41.1447L9.57529 36.2258C9.52234 36.1463 9.54587 36.0395 9.62529 35.9865C9.7047 35.9346 9.81157 35.9571 9.86354 36.0355L13.1 40.9545C13.1529 41.0339 13.1294 41.1407 13.05 41.1937C13.0225 41.2123 12.9882 41.2221 12.9559 41.2221Z" fill="#000"/>
<path d="M12.9555 41.2221C12.8653 41.2221 12.7898 41.1524 12.783 41.0613C12.7781 40.9662 12.8486 40.8838 12.9437 40.8779L18.8902 40.4799C19.0049 40.4701 19.0676 40.5455 19.0745 40.6407C19.0794 40.7358 19.0088 40.8181 18.9137 40.824L12.9673 41.2221C12.9634 41.2221 12.9594 41.2221 12.9555 41.2221Z" fill="#000"/>
<path d="M26.9035 40.9778H26.9006L18.8991 40.8239C18.8031 40.8219 18.7276 40.7435 18.7295 40.6484C18.7305 40.5543 18.808 40.4797 18.9021 40.4797H18.905L26.9065 40.6337C27.0026 40.6356 27.0781 40.7141 27.0761 40.8092C27.0751 40.9033 26.9986 40.9778 26.9035 40.9778Z" fill="#000"/>
<path d="M32.7872 48.9862C32.7343 48.9862 32.6823 48.9617 32.648 48.9166L26.7643 40.9082C26.7074 40.8318 26.7241 40.7229 26.8006 40.6671C26.877 40.6092 26.9849 40.6269 27.0418 40.7033L32.9254 48.7116C32.9823 48.7881 32.9656 48.897 32.8892 48.9528C32.8588 48.9754 32.8225 48.9862 32.7872 48.9862Z" fill="#000"/>
<path d="M41.076 53.2913C41.0495 53.2913 41.022 53.2854 40.9965 53.2717L32.7078 48.9665C32.6225 48.9224 32.5902 48.8185 32.6333 48.7342C32.6794 48.6498 32.7843 48.6165 32.8667 48.6606L41.1554 52.9658C41.2407 53.0099 41.273 53.1138 41.2299 53.1981C41.1985 53.258 41.1377 53.2913 41.076 53.2913Z" fill="#000"/>
<path d="M41.0761 53.2914C40.9888 53.2914 40.9133 53.2258 40.9045 53.1365L39.7299 41.53C39.7201 41.4349 39.7888 41.3506 39.8839 41.3407C39.9711 41.326 40.0633 41.3996 40.0721 41.4947L41.2467 53.1012C41.2565 53.1963 41.1879 53.2807 41.0928 53.2905C41.0879 53.2914 41.081 53.2914 41.0761 53.2914Z" fill="#000"/>
<path d="M39.9014 41.6847C39.8827 41.6847 39.8641 41.6818 39.8445 41.6749L33.4667 39.4699C33.3765 39.4385 33.3294 39.3405 33.3598 39.2503C33.3912 39.1601 33.4902 39.112 33.5794 39.1434L39.9573 41.3484C40.0475 41.3798 40.0945 41.4778 40.0641 41.568C40.0396 41.6406 39.972 41.6847 39.9014 41.6847Z" fill="#000"/>
<path d="M26.9037 40.978C26.8243 40.978 26.7537 40.923 26.7351 40.8436C26.7145 40.7505 26.7724 40.6583 26.8655 40.6368L33.4845 39.1386C33.5787 39.118 33.6689 39.1769 33.6904 39.269C33.711 39.3622 33.6532 39.4543 33.56 39.4759L26.941 40.974C26.9302 40.977 26.9165 40.978 26.9037 40.978Z" fill="#000"/>
<path d="M26.9036 40.9778C26.8614 40.9778 26.8202 40.9631 26.7859 40.9327L21.113 35.7246C21.0434 35.6598 21.0385 35.551 21.1032 35.4804C21.1679 35.4118 21.2758 35.4049 21.3474 35.4696L27.0202 40.6778C27.0899 40.7425 27.0948 40.8513 27.0301 40.9219C26.9967 40.9592 26.9516 40.9778 26.9036 40.9778Z" fill="#000"/>
<path d="M18.903 40.8241C18.8785 40.8241 18.855 40.8192 18.8305 40.8084C18.7442 40.7682 18.7069 40.6653 18.7471 40.579L21.0747 35.5248C21.1149 35.4375 21.2159 35.4012 21.3042 35.4395C21.3904 35.4797 21.4277 35.5826 21.3875 35.6689L19.0599 40.7231C19.0305 40.7868 18.9668 40.8241 18.903 40.8241Z" fill="#000"/>
<path d="M18.903 40.824C18.8775 40.824 18.8521 40.8191 18.8266 40.8063L9.64367 36.2855C9.55837 36.2433 9.52405 36.1403 9.56523 36.0541C9.60739 35.9688 9.70838 35.9345 9.79662 35.9756L18.9795 40.4965C19.0648 40.5386 19.0991 40.6416 19.0579 40.7279C19.0276 40.7887 18.9658 40.824 18.903 40.824Z" fill="#000"/>
<path d="M9.71996 36.3032C9.65427 36.3032 9.59153 36.2659 9.56211 36.2012C9.5229 36.1139 9.56211 36.0129 9.64839 35.9737L22.8541 30.0234C22.9394 29.9832 23.0413 30.0224 23.0835 30.1097C23.1227 30.1969 23.0835 30.2979 22.9972 30.3371L9.79154 36.2875C9.76801 36.2983 9.7435 36.3032 9.71996 36.3032Z" fill="#000"/>
<path d="M22.9258 30.3517C22.865 30.3517 22.8071 30.3203 22.7748 30.2634L19.3853 24.2268C19.3393 24.1435 19.3697 24.0386 19.451 23.9925C19.5363 23.9464 19.6393 23.9758 19.6863 24.0582L23.0758 30.0948C23.1218 30.1781 23.0915 30.2831 23.0101 30.3291C22.9836 30.3448 22.9542 30.3517 22.9258 30.3517Z" fill="#000"/>
<path d="M19.5355 24.3162C19.5316 24.3162 19.5276 24.3162 19.5237 24.3152L8.00049 23.4906C7.90441 23.4838 7.83382 23.4014 7.8397 23.3063C7.84656 23.2122 7.93774 23.1308 8.02402 23.1465L19.5472 23.971C19.6433 23.9779 19.7139 24.0603 19.708 24.1554C19.7012 24.2465 19.6257 24.3162 19.5355 24.3162Z" fill="#000"/>
<path d="M79.4084 29.4155C79.3604 29.4155 79.3104 29.395 79.2761 29.3538L72.11 20.8592C72.0492 20.7866 72.057 20.6768 72.1306 20.616C72.2031 20.5572 72.3139 20.5631 72.3747 20.6366L79.5408 29.1312C79.6016 29.2038 79.5938 29.3136 79.5202 29.3744C79.4888 29.4028 79.4477 29.4155 79.4084 29.4155Z" fill="#000"/>
<path d="M71.9061 28.6781C71.9032 28.6781 71.9012 28.6781 71.8983 28.6781C71.8041 28.6742 71.7296 28.5928 71.7335 28.4987L72.0708 20.7414C72.0747 20.6453 72.1512 20.5835 72.2512 20.5767C72.3453 20.5806 72.4199 20.662 72.4159 20.7561L72.0787 28.5134C72.0747 28.6065 71.9973 28.6781 71.9061 28.6781Z" fill="#000"/>
<path d="M79.4086 29.4154C79.4037 29.4154 79.3978 29.4154 79.391 29.4144L71.8886 28.6771C71.7945 28.6673 71.7258 28.583 71.7347 28.4889C71.7425 28.3997 71.818 28.333 71.9062 28.333C71.9111 28.333 71.917 28.333 71.9239 28.334L79.4263 29.0713C79.5204 29.0811 79.589 29.1654 79.5802 29.2595C79.5724 29.3488 79.4969 29.4154 79.4086 29.4154Z" fill="#000"/>
<path d="M79.4088 29.4154C79.3147 29.4154 79.2372 29.3408 79.2363 29.2467L79.0117 18.3049C79.0107 18.2098 79.0862 18.1314 79.1804 18.1294H79.1843C79.2784 18.1294 79.3559 18.2039 79.3569 18.298L79.5814 29.2399C79.5824 29.335 79.5069 29.4134 79.4127 29.4154C79.4127 29.4154 79.4108 29.4154 79.4088 29.4154Z" fill="#000"/>
<path d="M62.5223 20.3042C62.435 20.3042 62.3605 20.2385 62.3507 20.1503C62.3399 20.0552 62.4086 19.9708 62.5027 19.9601L79.1645 18.1296C79.2684 18.1119 79.3449 18.1864 79.3547 18.2815C79.3654 18.3766 79.2968 18.4609 79.2027 18.4717L62.5419 20.3032C62.535 20.3042 62.5292 20.3042 62.5223 20.3042Z" fill="#000"/>
<path d="M59.3525 24.3427C59.3152 24.3427 59.277 24.331 59.2456 24.3055C59.1701 24.2466 59.1583 24.1388 59.2162 24.0633L62.386 20.0258C62.4467 19.9513 62.5556 19.9385 62.6281 19.9964C62.7036 20.0552 62.7154 20.1631 62.6575 20.2386L59.4878 24.2761C59.4534 24.3192 59.4034 24.3427 59.3525 24.3427Z" fill="#000"/>
<path d="M59.3526 24.3425C59.2762 24.3425 59.2075 24.2916 59.186 24.2141C59.1614 24.1219 59.2173 24.0278 59.3085 24.0033L72.1995 20.5815C72.2897 20.5551 72.3858 20.611 72.4112 20.7031C72.4358 20.7953 72.3799 20.8894 72.2887 20.9139L59.3977 24.3357C59.382 24.3396 59.3673 24.3425 59.3526 24.3425Z" fill="#000"/>
<path d="M61.0479 30.5421C60.9999 30.5421 60.9509 30.5215 60.9175 30.4823C60.8558 30.4097 60.8636 30.3009 60.9361 30.2391L72.1319 20.618C72.2015 20.5552 72.3123 20.5631 72.3741 20.6366C72.4358 20.7091 72.428 20.818 72.3554 20.8797L61.1597 30.4999C61.1273 30.5283 61.0881 30.5421 61.0479 30.5421Z" fill="#000"/>
<path d="M61.0479 30.5421C60.9724 30.5421 60.9028 30.4911 60.8822 30.4156L59.187 24.2162C59.1615 24.1241 59.2154 24.029 59.3066 24.0044C59.4027 23.9799 59.4939 24.0339 59.5184 24.125L61.2136 30.3244C61.2391 30.4166 61.1851 30.5117 61.094 30.5362C61.0773 30.5391 61.0626 30.5421 61.0479 30.5421Z" fill="#000"/>
<path d="M49.5253 30.0204C49.4664 30.0204 49.4076 29.989 49.3752 29.9341C49.3282 29.8517 49.3566 29.7458 49.439 29.6988L59.266 24.021C59.3454 23.9749 59.4533 24.0004 59.5013 24.0847C59.5484 24.1671 59.52 24.273 59.4376 24.32L49.6105 29.9978C49.5851 30.0125 49.5547 30.0204 49.5253 30.0204Z" fill="#000"/>
<path d="M61.0475 30.542C61.0445 30.542 61.0426 30.542 61.0396 30.542L49.5184 30.0204C49.4243 30.0155 49.3497 29.9351 49.3537 29.84C49.3586 29.7449 49.4233 29.6841 49.5341 29.6753L61.0553 30.1969C61.1495 30.2018 61.224 30.2822 61.22 30.3773C61.2151 30.4695 61.1387 30.542 61.0475 30.542Z" fill="#000"/>
<path d="M64.2861 37.1659C64.2224 37.1659 64.1606 37.1306 64.1312 37.0688L60.8928 30.4439C60.8506 30.3586 60.8859 30.2557 60.9722 30.2135C61.0575 30.1733 61.1624 30.2077 61.2026 30.293L64.441 36.9179C64.4832 37.0032 64.4479 37.1061 64.3616 37.1483C64.3371 37.161 64.3116 37.1659 64.2861 37.1659Z" fill="#000"/>
<path d="M64.2861 37.1659C64.2439 37.1659 64.2037 37.1511 64.1704 37.1217C64.1007 37.058 64.0949 36.9482 64.1586 36.8776L71.7787 28.3898C71.8434 28.3193 71.9522 28.3153 72.0228 28.3761C72.0924 28.4399 72.0983 28.5497 72.0345 28.6203L64.4145 37.108C64.3802 37.1462 64.3331 37.1659 64.2861 37.1659Z" fill="#000"/>
<path d="M61.0475 30.5419C60.9651 30.5419 60.8926 30.4831 60.8779 30.3988C60.8622 30.3046 60.925 30.2164 61.0181 30.1997L71.8766 28.3369C71.9805 28.3133 72.0589 28.383 72.0756 28.4781C72.0913 28.5722 72.0285 28.6604 71.9354 28.6771L61.0769 30.54C61.0661 30.5409 61.0563 30.5419 61.0475 30.5419Z" fill="#000"/>
<path d="M55.714 38.4455C55.6806 38.4455 55.6463 38.4357 55.6169 38.4161C55.5385 38.3631 55.5169 38.2553 55.5708 38.1769L60.9045 30.2725C60.9594 30.194 61.0672 30.1734 61.1447 30.2264C61.2231 30.2793 61.2447 30.3872 61.1908 30.4656L55.8571 38.37C55.8228 38.419 55.7689 38.4455 55.714 38.4455Z" fill="#000"/>
<path d="M55.7139 38.4453C55.6306 38.4453 55.5561 38.3835 55.5424 38.2982C55.5286 38.2041 55.5933 38.1159 55.6875 38.1021L64.2595 36.8226C64.3566 36.8089 64.4419 36.8736 64.4566 36.9677C64.4703 37.0619 64.4056 37.1501 64.3115 37.1638L55.7394 38.4433C55.7296 38.4453 55.7218 38.4453 55.7139 38.4453Z" fill="#000"/>
<path d="M69.6257 38.3229C69.6139 38.3229 69.6012 38.3219 69.5894 38.3189L64.2499 37.162C64.1568 37.1414 64.0979 37.0502 64.1175 36.9571C64.1381 36.864 64.2352 36.8071 64.3225 36.8247L69.662 37.9817C69.7551 38.0023 69.8139 38.0934 69.7943 38.1866C69.7767 38.267 69.7051 38.3229 69.6257 38.3229Z" fill="#000"/>
<path d="M69.6256 38.3228C69.5795 38.3228 69.5354 38.3051 69.502 38.2698C69.4364 38.2012 69.4373 38.0924 69.506 38.0257L72.1238 35.5128C72.1934 35.4481 72.3032 35.45 72.3679 35.5177C72.4336 35.5863 72.4326 35.6952 72.364 35.7618L69.7462 38.2747C69.7119 38.3061 69.6687 38.3228 69.6256 38.3228Z" fill="#000"/>
<path d="M72.2434 35.8099C72.1522 35.8099 72.0747 35.7374 72.0708 35.6452L71.7336 28.5134C71.7296 28.4183 71.8022 28.3379 71.8983 28.333C72.0061 28.335 72.0738 28.4026 72.0787 28.4977L72.4159 35.6295C72.4199 35.7246 72.3473 35.805 72.2512 35.8099C72.2483 35.8099 72.2453 35.8099 72.2434 35.8099Z" fill="#000"/>
<path d="M86.5335 41.9221C86.4913 41.9221 86.4511 41.9074 86.4178 41.8779L71.7905 28.634C71.7209 28.5703 71.715 28.4605 71.7787 28.3899C71.8434 28.3183 71.9523 28.3154 72.0228 28.3781L86.6502 41.622C86.7198 41.6858 86.7257 41.7956 86.6619 41.8662C86.6276 41.9025 86.5806 41.9221 86.5335 41.9221Z" fill="#000"/>
<path d="M86.5334 41.9221C86.5109 41.9221 86.4873 41.9172 86.4658 41.9084L72.1757 35.7962C72.0885 35.759 72.0473 35.657 72.0845 35.5698C72.1238 35.4825 72.2277 35.4433 72.311 35.4795L86.6011 41.5917C86.6883 41.6289 86.7295 41.7309 86.6923 41.8182C86.6638 41.8829 86.6011 41.9221 86.5334 41.9221Z" fill="#000"/>
<path d="M72.2433 35.81C72.2188 35.81 72.1933 35.8051 72.1688 35.7944L60.9731 30.5264C60.8878 30.4852 60.8505 30.3833 60.8907 30.297C60.9329 30.2107 61.0339 30.1764 61.1211 30.2136L72.3169 35.4816C72.4022 35.5228 72.4394 35.6247 72.3992 35.711C72.3698 35.7738 72.308 35.81 72.2433 35.81Z" fill="#000"/>
<path d="M61.0479 30.5419C61.0233 30.5419 60.9998 30.537 60.9763 30.5262C60.889 30.486 60.8508 30.3831 60.891 30.2968L70.0572 10.3672C70.0964 10.2809 70.2023 10.2446 70.2847 10.2819C70.3719 10.3221 70.4102 10.425 70.37 10.5113L61.2037 30.4409C61.1753 30.5047 61.1126 30.5419 61.0479 30.5419Z" fill="#000"/>
<path d="M58.7984 12.3693C58.7151 12.3693 58.6406 12.3075 58.6268 12.2232C58.6131 12.1291 58.6778 12.0409 58.7719 12.0261L70.1873 10.2682C70.2814 10.2555 70.3697 10.3202 70.3844 10.4123C70.3981 10.5065 70.3334 10.5947 70.2393 10.6094L58.8239 12.3673C58.8161 12.3693 58.8063 12.3693 58.7984 12.3693Z" fill="#000"/>
<path d="M59.3526 24.3425C59.2615 24.3425 59.184 24.27 59.1801 24.1778L58.6261 12.2055C58.6222 12.1104 58.6948 12.03 58.7908 12.0251C58.8977 12.0202 58.9663 12.0947 58.9713 12.1898L59.5252 24.1621C59.5291 24.2572 59.4566 24.3376 59.3605 24.3425C59.3575 24.3425 59.3556 24.3425 59.3526 24.3425Z" fill="#000"/>
<path d="M59.3527 24.3426C59.3047 24.3426 59.2557 24.322 59.2223 24.2828L54.778 19.1266C54.7162 19.0541 54.724 18.9453 54.7956 18.8835C54.8682 18.8198 54.976 18.8286 55.0397 18.9021L59.4841 24.0583C59.5459 24.1309 59.538 24.2397 59.4665 24.3015C59.4322 24.3289 59.3929 24.3426 59.3527 24.3426Z" fill="#000"/>
<path d="M62.5224 20.304C62.5146 20.304 62.5068 20.3031 62.497 20.3021L54.8818 19.1834C54.7877 19.1697 54.723 19.0824 54.7367 18.9883C54.7504 18.8942 54.8259 18.8216 54.9338 18.8432L62.5489 19.9619C62.643 19.9756 62.7078 20.0629 62.694 20.157C62.6803 20.2423 62.6077 20.304 62.5224 20.304Z" fill="#000"/>
<path d="M42.0101 22.723C41.9238 22.723 41.8493 22.6583 41.8385 22.571C41.8277 22.4769 41.8954 22.3906 41.9895 22.3799L62.5015 19.9611C62.5956 19.9503 62.6809 20.018 62.6927 20.1121C62.7035 20.2062 62.6358 20.2925 62.5417 20.3033L42.0297 22.722C42.0238 22.722 42.017 22.723 42.0101 22.723Z" fill="#000"/>
<path d="M49.5255 30.0204C49.4823 30.0204 49.4392 30.0047 49.4059 29.9724L41.8907 22.6749C41.8221 22.6082 41.8211 22.4994 41.8868 22.4308C41.9545 22.3631 42.0633 22.3621 42.1309 22.4268L49.6461 29.7243C49.7147 29.791 49.7157 29.8998 49.65 29.9685C49.6157 30.0028 49.5706 30.0204 49.5255 30.0204Z" fill="#000"/>
<path d="M43.9067 35.1177C43.8596 35.1177 43.8125 35.0991 43.7782 35.0608C43.7145 34.9902 43.7204 34.8814 43.79 34.8167L49.4089 29.7193C49.4805 29.6556 49.5884 29.6595 49.6531 29.7311C49.7168 29.8017 49.7109 29.9105 49.6413 29.9752L44.0224 35.0726C43.989 35.103 43.9478 35.1177 43.9067 35.1177Z" fill="#000"/>
<path d="M43.9065 35.1177C43.8232 35.1177 43.7487 35.056 43.7349 34.9717L41.8397 22.5768C41.826 22.4827 41.8907 22.3945 41.9848 22.3797C42.0809 22.365 42.1672 22.4307 42.1819 22.5239L44.0771 34.9187C44.0908 35.0128 44.0261 35.1011 43.932 35.1158C43.9242 35.1168 43.9144 35.1177 43.9065 35.1177Z" fill="#000"/>
<path d="M42.0104 22.7228C41.9849 22.7228 41.9594 22.7179 41.9349 22.7052C41.8496 22.664 41.8133 22.5611 41.8555 22.4748L47.5598 10.7113C47.6019 10.626 47.7068 10.5908 47.7902 10.6319C47.8755 10.6731 47.9117 10.7761 47.8696 10.8623L42.1653 22.6258C42.1359 22.6866 42.0741 22.7228 42.0104 22.7228Z" fill="#000"/>
<path d="M54.9079 19.1855C54.8599 19.1855 54.8118 19.1649 54.7785 19.1267L47.5859 10.9007C47.5222 10.8281 47.531 10.7193 47.6016 10.6566C47.6732 10.5938 47.781 10.6017 47.8438 10.6722L55.0364 18.8982C55.1001 18.9708 55.0913 19.0796 55.0207 19.1424C54.9883 19.1718 54.9481 19.1855 54.9079 19.1855Z" fill="#000"/>
<path d="M54.9083 19.1855C54.8867 19.1855 54.8642 19.1816 54.8426 19.1727L36.8357 11.788C36.7484 11.7517 36.7062 11.6517 36.7425 11.5635C36.7778 11.4762 36.8788 11.4321 36.967 11.4693L54.974 18.8541C55.0612 18.8904 55.1034 18.9904 55.0671 19.0786C55.0397 19.1453 54.975 19.1855 54.9083 19.1855Z" fill="#000"/>
<path d="M42.0102 22.7228C41.9455 22.7228 41.8837 22.6856 41.8543 22.6228L36.7442 11.7006C36.704 11.6143 36.7413 11.5124 36.8275 11.4712C36.9099 11.43 37.0148 11.4683 37.057 11.5545L42.1671 22.4767C42.2073 22.563 42.17 22.665 42.0837 22.7062C42.0602 22.717 42.0347 22.7228 42.0102 22.7228Z" fill="#000"/>
<path d="M36.9002 26.9859C36.8502 26.9859 36.8022 26.9653 36.7679 26.9241C36.7061 26.8506 36.7169 26.7418 36.7894 26.681L41.8995 22.418C41.9721 22.3572 42.0829 22.367 42.1417 22.4405C42.2035 22.5141 42.1927 22.6229 42.1201 22.6837L37.01 26.9467C36.9787 26.9732 36.9394 26.9859 36.9002 26.9859Z" fill="#000"/>
<path d="M36.9 26.9859C36.8598 26.9859 36.8196 26.9722 36.7872 26.9438L30.1613 21.2062C30.0898 21.1434 30.0819 21.0346 30.1437 20.962C30.2084 20.8895 30.3162 20.8836 30.3878 20.9444L37.0137 26.682C37.0853 26.7447 37.0931 26.8536 37.0313 26.9261C36.996 26.9653 36.949 26.9859 36.9 26.9859Z" fill="#000"/>
<path d="M30.2745 21.2482C30.2392 21.2482 30.2058 21.2384 30.1764 21.2169C30.098 21.162 30.0794 21.0541 30.1333 20.9767L36.7592 11.529C36.8131 11.4506 36.9219 11.433 36.9994 11.4869C37.0778 11.5418 37.0964 11.6496 37.0425 11.7271L30.4166 21.1747C30.3823 21.2228 30.3284 21.2482 30.2745 21.2482Z" fill="#000"/>
<path d="M36.9003 11.8007C36.8317 11.8007 36.767 11.7596 36.7395 11.6919L35.2228 7.8515C35.1875 7.76326 35.2306 7.66325 35.3198 7.62796C35.4032 7.59462 35.5071 7.6358 35.5434 7.72502L37.0601 11.5654C37.0954 11.6537 37.0523 11.7537 36.9631 11.789C36.9434 11.7968 36.9219 11.8007 36.9003 11.8007Z" fill="#000"/>
<path d="M28.9948 13.3772C28.9467 13.3772 28.8977 13.3566 28.8624 13.3164C28.8016 13.2439 28.8095 13.1341 28.883 13.0733L35.2716 7.65628C35.3461 7.59452 35.454 7.60432 35.5157 7.67589C35.5765 7.74845 35.5687 7.85826 35.4952 7.91904L29.1065 13.336C29.0742 13.3645 29.034 13.3772 28.9948 13.3772Z" fill="#000"/>
<path d="M30.2742 21.2483C30.1909 21.2483 30.1183 21.1885 30.1046 21.1032L28.8251 13.2332C28.8094 13.139 28.8732 13.0508 28.9663 13.0351C29.0565 13.0165 29.1497 13.0832 29.1644 13.1783L30.4438 21.0493C30.4595 21.1434 30.3958 21.2317 30.3027 21.2474C30.2938 21.2474 30.284 21.2483 30.2742 21.2483Z" fill="#000"/>
<path d="M30.2745 21.2483C30.2539 21.2483 30.2324 21.2453 30.2128 21.2365C30.1235 21.2022 30.0794 21.1022 30.1147 21.0139L35.2238 7.7259C35.2562 7.63667 35.3562 7.59255 35.4464 7.62687C35.5356 7.66119 35.5797 7.76119 35.5444 7.84943L30.4353 21.1375C30.4098 21.2061 30.3441 21.2483 30.2745 21.2483Z" fill="#000"/>
<path d="M35.3834 7.96036C35.3285 7.96036 35.2755 7.93389 35.2422 7.88585C35.1882 7.80741 35.2069 7.70054 35.2853 7.64564L43.6427 1.87275C43.7211 1.81981 43.829 1.83942 43.8829 1.91687C43.9368 1.99531 43.9182 2.10218 43.8397 2.15708L35.4824 7.92997C35.452 7.95056 35.4167 7.96036 35.3834 7.96036Z" fill="#000"/>
<path d="M47.7147 10.9596C47.649 10.9596 47.5863 10.9223 47.5569 10.8586L43.5821 2.08649C43.5429 1.99923 43.5821 1.89727 43.6684 1.85805C43.7518 1.81687 43.8567 1.85707 43.8978 1.94335L47.8726 10.7154C47.9118 10.8027 47.8726 10.9047 47.7863 10.9439C47.7637 10.9547 47.7392 10.9596 47.7147 10.9596Z" fill="#000"/>
<path d="M47.7144 10.9594C47.683 10.9594 47.6526 10.9515 47.6242 10.9339C47.5418 10.8829 47.5173 10.777 47.5673 10.6956L53.4324 1.23625C53.4804 1.15487 53.5883 1.12938 53.6697 1.18036C53.752 1.23135 53.7765 1.33724 53.7265 1.41861L47.8615 10.878C47.8291 10.93 47.7723 10.9594 47.7144 10.9594Z" fill="#000"/>
<path d="M36.9129 11.8007C36.8551 11.8007 36.7982 11.7713 36.7658 11.7193C36.7158 11.638 36.7413 11.5321 36.8227 11.4811L53.4894 1.18048C53.5717 1.13146 53.6766 1.15597 53.7266 1.23637C53.7766 1.31774 53.7511 1.42363 53.6698 1.47462L37.0031 11.7752C36.9747 11.7929 36.9433 11.8007 36.9129 11.8007Z" fill="#000"/>
<path d="M36.9128 11.8008C36.8235 11.8008 36.748 11.7322 36.7402 11.642C36.7333 11.5469 36.8049 11.4645 36.899 11.4567L47.7016 10.6154C47.7997 10.5948 47.8781 10.6792 47.8879 10.7733C47.8948 10.8684 47.8232 10.9507 47.7291 10.9586L36.9265 11.7998C36.9216 11.8008 36.9167 11.8008 36.9128 11.8008Z" fill="#000"/>
<path d="M58.7984 12.3694C58.7915 12.3694 58.7837 12.3684 58.7768 12.3684L47.6928 10.9576C47.5987 10.9458 47.5311 10.8595 47.5428 10.7654C47.5536 10.6713 47.6399 10.6095 47.735 10.6154L58.819 12.0262C58.9131 12.038 58.9808 12.1243 58.969 12.2184C58.9592 12.3067 58.8847 12.3694 58.7984 12.3694Z" fill="#000"/>
<path d="M42.0101 22.7229C41.9522 22.7229 41.8954 22.6935 41.863 22.6405C41.813 22.5601 41.8385 22.4533 41.9199 22.4033L58.7081 12.0507C58.7905 11.9997 58.8954 12.0262 58.9454 12.1076C58.9954 12.1889 58.9699 12.2948 58.8885 12.3448L42.1003 22.6974C42.0728 22.715 42.0414 22.7229 42.0101 22.7229Z" fill="#000"/>
<path d="M33.5224 39.4799C33.4959 39.4799 33.4694 39.474 33.4439 39.4613C33.3586 39.4181 33.3253 39.3142 33.3685 39.2299L41.8562 22.473C41.8984 22.3877 42.0033 22.3544 42.0876 22.3975C42.1729 22.4406 42.2062 22.5446 42.1631 22.6289L33.6753 39.3858C33.6469 39.4456 33.5861 39.4799 33.5224 39.4799Z" fill="#000"/>
<path d="M33.5227 39.4796C33.508 39.4796 33.4933 39.4777 33.4786 39.4738C33.3854 39.4492 33.3315 39.3541 33.356 39.262L36.7337 26.7671C36.7591 26.675 36.8533 26.621 36.9454 26.6456C37.0386 26.6701 37.0925 26.7652 37.068 26.8573L33.6903 39.3522C33.6688 39.4296 33.5982 39.4796 33.5227 39.4796Z" fill="#000"/>
<path d="M27.9584 31.5961C27.8967 31.5961 27.8359 31.5617 27.8045 31.5019C27.7614 31.4176 27.7947 31.3137 27.879 31.2696L36.8207 26.6585C36.9041 26.6164 37.009 26.6477 37.0541 26.733C37.0972 26.8173 37.0639 26.9213 36.9796 26.9654L28.0379 31.5764C28.0124 31.5902 27.9859 31.5961 27.9584 31.5961Z" fill="#000"/>
<path d="M27.9584 31.596C27.9467 31.596 27.9329 31.595 27.9212 31.5921C27.828 31.5715 27.7702 31.4793 27.7908 31.3862L30.1066 21.0375C30.1272 20.9464 30.2213 20.8866 30.3125 20.9071C30.4056 20.9277 30.4635 21.0199 30.4429 21.113L28.1271 31.4617C28.1094 31.5421 28.0378 31.596 27.9584 31.596Z" fill="#000"/>
<path d="M22.9259 30.3517C22.8886 30.3517 22.8494 30.339 22.818 30.3135C22.7435 30.2537 22.7318 30.1449 22.7916 30.0713L30.141 20.9669C30.2018 20.8924 30.3106 20.8816 30.3832 20.9414C30.4577 21.0012 30.4695 21.11 30.4097 21.1835L23.0602 30.288C23.0249 30.3302 22.9749 30.3517 22.9259 30.3517Z" fill="#000"/>
<path d="M21.2308 35.7696C21.2131 35.7696 21.1974 35.7667 21.1798 35.7618C21.0886 35.7334 21.0386 35.6363 21.067 35.5461L22.7622 30.1291C22.7907 30.037 22.8858 29.986 22.9779 30.0164C23.0691 30.0448 23.1191 30.1419 23.0907 30.2321L21.3955 35.649C21.372 35.7226 21.3053 35.7696 21.2308 35.7696Z" fill="#000"/>
<path d="M21.2305 35.7698C21.1727 35.7698 21.1158 35.7404 21.0835 35.6885C21.0334 35.6081 21.058 35.5012 21.1403 35.4502L27.8682 31.2774C27.9505 31.2284 28.0564 31.2539 28.1054 31.3333C28.1554 31.4137 28.1309 31.5206 28.0486 31.5716L21.3207 35.7443C21.2923 35.762 21.2619 35.7698 21.2305 35.7698Z" fill="#000"/>
<path d="M33.5224 39.4798C33.4685 39.4798 33.4146 39.4543 33.3813 39.4072L27.8172 31.5234C27.7633 31.445 27.7809 31.3372 27.8594 31.2832C27.9358 31.2273 28.0437 31.246 28.1006 31.3244L33.6646 39.2082C33.7185 39.2866 33.7009 39.3945 33.6224 39.4484C33.5921 39.47 33.5577 39.4798 33.5224 39.4798Z" fill="#000"/>
<path d="M33.5227 39.4797C33.4551 39.4797 33.3923 39.4395 33.3639 39.3738C33.3276 39.2865 33.3678 39.1855 33.4551 39.1483L43.8381 34.7863C43.9312 34.75 44.0263 34.7902 44.0645 34.8784C44.1008 34.9657 44.0606 35.0667 43.9734 35.1039L33.5904 39.4659C33.5678 39.4758 33.5463 39.4797 33.5227 39.4797Z" fill="#000"/>
<path d="M39.9014 41.6848C39.8701 41.6848 39.8397 41.6769 39.8112 41.6603C39.7308 41.6103 39.7044 41.5044 39.7544 41.423L43.7595 34.8559C43.8095 34.7746 43.9144 34.7491 43.9968 34.7981C44.0772 34.8481 44.1036 34.954 44.0536 35.0354L40.0485 41.6024C40.0152 41.6554 39.9593 41.6848 39.9014 41.6848Z" fill="#000"/>
<path d="M51.2568 42.8936C51.2519 42.8936 51.245 42.8936 51.2381 42.8926L39.8826 41.6837C39.7885 41.6739 39.7198 41.5876 39.7306 41.4935C39.7404 41.3994 39.8002 41.3268 39.9208 41.3396L51.2764 42.5485C51.3705 42.5583 51.4391 42.6446 51.4284 42.7387C51.4185 42.8279 51.344 42.8936 51.2568 42.8936Z" fill="#000"/>
<path d="M51.257 42.8937C51.1717 42.8937 51.0981 42.831 51.0854 42.7437L49.3539 29.8704C49.3421 29.7763 49.4078 29.689 49.5019 29.6763C49.5882 29.6665 49.6824 29.7292 49.6961 29.8243L51.4276 42.6976C51.4393 42.7918 51.3736 42.879 51.2795 42.8918C51.2717 42.8928 51.2648 42.8937 51.257 42.8937Z" fill="#000"/>
<path d="M55.7142 38.4453C55.6612 38.4453 55.6093 38.4208 55.575 38.3757L49.3873 29.9497C49.3305 29.8732 49.3471 29.7644 49.4236 29.7085C49.5001 29.6497 49.6079 29.6683 49.6648 29.7448L55.8524 38.1708C55.9093 38.2472 55.8926 38.3561 55.8161 38.4119C55.7848 38.4345 55.7485 38.4453 55.7142 38.4453Z" fill="#000"/>
<path d="M39.9012 41.6848C39.8208 41.6848 39.7492 41.6289 39.7325 41.5466C39.7119 41.4534 39.7727 41.3623 39.8659 41.3436L55.6786 38.1052C55.7795 38.0866 55.8629 38.1464 55.8815 38.2395C55.9021 38.3327 55.8413 38.4239 55.7482 38.4425L39.9355 41.6809C39.9237 41.6829 39.9119 41.6848 39.9012 41.6848Z" fill="#000"/>
<path d="M39.9012 41.6849C39.8394 41.6849 39.7796 41.6516 39.7492 41.5927C39.7051 41.5084 39.7375 41.4045 39.8208 41.3604L60.9672 30.2176C61.0505 30.1705 61.1554 30.2058 61.2005 30.2901C61.2446 30.3744 61.2123 30.4784 61.1289 30.5225L39.9816 41.6643C39.9561 41.679 39.9277 41.6849 39.9012 41.6849Z" fill="#000"/>
<path d="M62.6667 42.7584C62.651 42.7584 62.6343 42.7564 62.6186 42.7515C62.5274 42.7251 62.4745 42.63 62.501 42.5378L64.1207 36.9453C64.1471 36.8541 64.2462 36.8032 64.3344 36.8277C64.4256 36.8541 64.4785 36.9492 64.4521 37.0414L62.8324 42.6339C62.8108 42.7094 62.7422 42.7584 62.6667 42.7584Z" fill="#000"/>
<path d="M75.2337 46.1409C75.1944 46.1409 75.1572 46.1282 75.1248 46.1017L64.1771 37.1267C64.1026 37.0659 64.0918 36.958 64.1526 36.8845C64.2134 36.81 64.3213 36.8002 64.3948 36.86L75.3425 45.835C75.417 45.8958 75.4278 46.0037 75.367 46.0772C75.3337 46.1193 75.2837 46.1409 75.2337 46.1409Z" fill="#000"/>
<path d="M75.2339 46.141C75.18 46.141 75.1271 46.1165 75.0937 46.0685L69.4856 38.2494C69.4307 38.1719 69.4483 38.0641 69.5248 38.0092C69.6032 37.9533 69.7091 37.97 69.766 38.0494L75.3741 45.8685C75.429 45.9459 75.4114 46.0538 75.3349 46.1087C75.3045 46.1302 75.2692 46.141 75.2339 46.141Z" fill="#000"/>
<path d="M65.7596 58.4976C65.7488 58.4976 65.738 58.4966 65.7272 58.4947C65.6331 58.477 65.5723 58.3868 65.59 58.2937L69.4549 38.118C69.4725 38.0239 69.5657 37.9533 69.6569 37.9817C69.751 37.9994 69.8118 38.0896 69.7941 38.1827L65.9292 58.3574C65.9135 58.4408 65.841 58.4976 65.7596 58.4976Z" fill="#000"/>
<path d="M65.7599 58.4975C65.6962 58.4975 65.6364 58.4622 65.606 58.4023L55.5603 38.3512C55.5172 38.2659 55.5505 38.1619 55.6368 38.1198C55.7221 38.0796 55.827 38.1129 55.8672 38.1963L65.9139 58.2484C65.957 58.3337 65.9237 58.4376 65.8374 58.4798C65.8129 58.4916 65.7854 58.4975 65.7599 58.4975Z" fill="#000"/>
<path d="M46.9175 55.814C46.8607 55.814 46.8058 55.7856 46.7724 55.7346L42.6712 49.3107C42.6202 49.2303 42.6447 49.1234 42.7242 49.0724C42.8026 49.0234 42.9104 49.045 42.9624 49.1254L47.0636 55.5493C47.1146 55.6297 47.0901 55.7366 47.0107 55.7875C46.9822 55.8052 46.9499 55.814 46.9175 55.814Z" fill="#000"/>
<path d="M53.9355 50.5754C53.9306 50.5754 53.9238 50.5754 53.9169 50.5744L42.7976 49.389C42.7035 49.3792 42.6349 49.293 42.6456 49.1988C42.6555 49.1047 42.7172 49.0322 42.8359 49.0449L53.9551 50.2303C54.0493 50.2401 54.1179 50.3264 54.1071 50.4205C54.0973 50.5097 54.0228 50.5754 53.9355 50.5754Z" fill="#000"/>
<path d="M42.8162 49.3892C42.7465 49.3892 42.6818 49.3471 42.6544 49.2784L39.7385 41.5731C39.7052 41.4839 39.7503 41.3848 39.8395 41.3505C39.9297 41.3152 40.0268 41.3613 40.0621 41.4505L42.9779 49.1559C43.0113 49.2451 42.9662 49.3441 42.8769 49.3784C42.8563 49.3863 42.8367 49.3892 42.8162 49.3892Z" fill="#000"/>
<path d="M32.7873 48.9861C32.7834 48.9861 32.7775 48.9861 32.7735 48.9851C32.6794 48.9773 32.6078 48.8949 32.6147 48.7998L33.3501 39.2934C33.3579 39.1993 33.455 39.1198 33.5363 39.1355C33.6305 39.1434 33.702 39.2257 33.6952 39.3208L32.9598 48.8273C32.952 48.9175 32.8765 48.9861 32.7873 48.9861Z" fill="#000"/>
<path d="M41.0758 53.2913C41.015 53.2913 40.9561 53.2589 40.9248 53.2021L33.3724 39.3905C33.3263 39.3072 33.3577 39.2022 33.441 39.1562C33.5214 39.112 33.6283 39.1415 33.6743 39.2248L41.2267 53.0364C41.2728 53.1197 41.2415 53.2246 41.1581 53.2707C41.1316 53.2844 41.1042 53.2913 41.0758 53.2913Z" fill="#000"/>
<path d="M30.2742 21.2483C30.2635 21.2483 30.2517 21.2473 30.2389 21.2453L22.8424 19.7286C22.7493 19.709 22.6885 19.6178 22.7091 19.5256C22.7267 19.4325 22.8071 19.3737 22.912 19.3913L30.3086 20.9081C30.4017 20.9277 30.4625 21.0189 30.4419 21.111C30.4272 21.1924 30.3556 21.2483 30.2742 21.2483Z" fill="#000"/>
<path d="M22.9257 30.3518C22.8316 30.3518 22.7531 30.2754 22.7531 30.1802L22.7061 19.559C22.7061 19.4639 22.7825 19.3865 22.8776 19.3855C22.9718 19.3855 23.0512 19.462 23.0512 19.5571L23.0982 30.1783C23.0982 30.2734 23.0218 30.3508 22.9267 30.3518C22.9257 30.3518 22.9257 30.3518 22.9257 30.3518Z" fill="#000"/>
<path d="M22.8786 19.7317C22.8452 19.7317 22.8099 19.7219 22.7805 19.7003L17.7067 16.1442C17.6283 16.0893 17.6096 15.9814 17.6636 15.904C17.7175 15.8255 17.8253 15.8069 17.9038 15.8618L22.9776 19.4179C23.056 19.4728 23.0747 19.5807 23.0207 19.6581C22.9854 19.7062 22.9325 19.7317 22.8786 19.7317Z" fill="#000"/>
<path d="M17.8047 16.1755C17.7714 16.1755 17.7361 16.1657 17.7067 16.1441C17.6283 16.0892 17.6096 15.9823 17.6636 15.9039L24.3012 6.37292C24.3551 6.29351 24.463 6.27488 24.5414 6.32978C24.6199 6.38469 24.6385 6.49156 24.5846 6.56999L17.9469 16.1009C17.9126 16.15 17.8587 16.1755 17.8047 16.1755Z" fill="#000"/>
<path d="M24.4425 6.64356C24.4199 6.64356 24.3964 6.63866 24.3738 6.62984L19.8697 4.68561C19.7824 4.64835 19.7412 4.54638 19.7794 4.45912C19.8187 4.37088 19.9167 4.33362 20.0069 4.36892L24.5111 6.31315C24.5984 6.35041 24.6395 6.45238 24.6013 6.53964C24.5729 6.60533 24.5082 6.64356 24.4425 6.64356Z" fill="#000"/>
<path d="M22.9012 19.7453C22.8208 19.7453 22.7473 19.6884 22.7316 19.6061L19.7687 4.56107C19.751 4.46793 19.8118 4.37675 19.905 4.3591C20.0099 4.33851 20.0893 4.40224 20.1079 4.49538L23.0708 19.5404C23.0885 19.6335 23.0277 19.7247 22.9345 19.7424C22.9228 19.7443 22.912 19.7453 22.9012 19.7453Z" fill="#000"/>
<path d="M22.9012 19.7453C22.8581 19.7453 22.8149 19.7296 22.7826 19.6972C22.713 19.6315 22.711 19.5217 22.7777 19.4531L28.8712 13.0851C28.9369 13.0155 29.0477 13.0155 29.1134 13.0802C29.183 13.1459 29.1849 13.2557 29.1183 13.3243L23.0248 19.6923C22.9914 19.7276 22.9473 19.7453 22.9012 19.7453Z" fill="#000"/>
<path d="M28.9947 13.3772C28.9398 13.3772 28.8859 13.3507 28.8516 13.3007L24.2993 6.56695C24.2454 6.48852 24.267 6.38067 24.3454 6.32772C24.4238 6.27478 24.5317 6.29439 24.5856 6.3738L29.1379 13.1075C29.1918 13.186 29.1702 13.2938 29.0918 13.3468C29.0624 13.3683 29.028 13.3772 28.9947 13.3772Z" fill="#000"/>
<path d="M24.4425 6.64364C24.3817 6.64364 24.3229 6.61128 24.2915 6.55442C24.2455 6.47108 24.2759 6.36617 24.3592 6.32009L34.198 0.891338C34.2813 0.844276 34.3862 0.875651 34.4323 0.958989C34.4784 1.04233 34.448 1.14724 34.3647 1.19332L24.5259 6.62207C24.4994 6.63775 24.471 6.64364 24.4425 6.64364Z" fill="#000"/>
<path d="M35.3834 7.96018C35.3001 7.96018 35.2275 7.90038 35.2138 7.81508L34.1117 1.06958C34.0961 0.975461 34.1598 0.887221 34.2529 0.871534C34.3431 0.857807 34.4363 0.919576 34.451 1.01468L35.553 7.76017C35.5687 7.8543 35.505 7.94254 35.4118 7.95822C35.402 7.9592 35.3932 7.96018 35.3834 7.96018Z" fill="#000"/>
<path d="M47.7145 10.9594C47.7008 10.9594 47.6881 10.9584 47.6743 10.9545L35.3432 7.9553C35.2501 7.93275 35.1932 7.83961 35.2167 7.74744C35.2383 7.65528 35.3344 7.59939 35.4246 7.61998L47.7557 10.6192C47.8489 10.6417 47.9057 10.7349 47.8822 10.827C47.8636 10.9065 47.793 10.9594 47.7145 10.9594Z" fill="#000"/>
<path d="M47.7147 10.9594C47.6794 10.9594 47.6451 10.9487 47.6137 10.9261L34.1805 1.1824C34.1041 1.12652 34.0864 1.01867 34.1413 0.942195C34.1962 0.864739 34.3031 0.846111 34.3825 0.903957L47.8157 10.6477C47.8921 10.7036 47.9098 10.8114 47.8549 10.8879C47.8215 10.934 47.7686 10.9594 47.7147 10.9594Z" fill="#000"/>
<path d="M28.995 13.3773C28.9725 13.3773 28.9489 13.3724 28.9264 13.3636C28.8391 13.3253 28.7979 13.2244 28.8372 13.1361L34.1237 0.973638C34.161 0.886378 34.263 0.847159 34.3502 0.884416C34.4375 0.922654 34.4787 1.02364 34.4394 1.11188L29.1529 13.2744C29.1244 13.3381 29.0607 13.3773 28.995 13.3773Z" fill="#000"/>
<path d="M28.9949 13.3773C28.9792 13.3773 28.9635 13.3753 28.9478 13.3704L13.0155 8.80839C12.9243 8.78192 12.8704 8.68682 12.8969 8.59564C12.9234 8.50446 13.0194 8.45249 13.1096 8.477L29.0419 13.039C29.1331 13.0655 29.1871 13.1606 29.1606 13.2518C29.139 13.3283 29.0704 13.3773 28.9949 13.3773Z" fill="#000"/>
<path d="M17.8048 16.1754C17.748 16.1754 17.6931 16.1479 17.6597 16.0969L12.9173 8.73767C12.8663 8.65727 12.8889 8.5504 12.9702 8.49942C13.0497 8.44844 13.1565 8.47001 13.2085 8.5504L17.9509 15.9097C18.0019 15.9901 17.9794 16.0969 17.898 16.1479C17.8695 16.1665 17.8372 16.1754 17.8048 16.1754Z" fill="#000"/>
<path d="M8.01344 23.4916C7.9605 23.4916 7.90951 23.4681 7.87422 23.422C7.81735 23.3455 7.83402 23.2377 7.90951 23.1808L17.7013 15.8647C17.7777 15.8098 17.8856 15.8225 17.9434 15.9C18.0003 15.9764 17.9836 16.0843 17.9081 16.1412L8.11639 23.4573C8.08599 23.4798 8.04972 23.4916 8.01344 23.4916Z" fill="#000"/>
<path d="M17.805 16.1753C17.7942 16.1753 17.7844 16.1744 17.7736 16.1724L8.57504 14.489C8.48092 14.4713 8.41915 14.3821 8.43582 14.288C8.45151 14.1938 8.54073 14.1301 8.63681 14.1487L17.8354 15.8322C17.9295 15.8498 17.9913 15.939 17.9746 16.0332C17.9599 16.1175 17.8864 16.1753 17.805 16.1753Z" fill="#000"/>
<path d="M19.5354 24.316C19.4933 24.316 19.4531 24.3013 19.4198 24.2719L8.4897 14.4478C8.42009 14.3841 8.4142 14.2752 8.47793 14.2046C8.54264 14.134 8.65049 14.1301 8.72206 14.1919L19.6521 24.016C19.7217 24.0797 19.7276 24.1886 19.6639 24.2592C19.6305 24.2964 19.5825 24.316 19.5354 24.316Z" fill="#000"/>
<path d="M8.60534 14.492C8.54161 14.492 8.4818 14.4567 8.45043 14.3959C8.40827 14.3106 8.44356 14.2066 8.52886 14.1645L24.3661 6.31696C24.4523 6.27578 24.5543 6.3101 24.5974 6.39442C24.6396 6.47972 24.6043 6.58364 24.519 6.6258L8.68181 14.4733C8.65828 14.4861 8.63083 14.492 8.60534 14.492Z" fill="#000"/>
<path d="M8.01319 23.4916C7.99456 23.4916 7.97594 23.4887 7.95633 23.4818C7.86711 23.4504 7.81906 23.3524 7.84946 23.2632L12.8988 8.58781C12.9301 8.4976 13.0292 8.44858 13.1184 8.48094C13.2076 8.51231 13.2557 8.61036 13.2253 8.69958L8.17595 23.375C8.15144 23.4465 8.08379 23.4916 8.01319 23.4916Z" fill="#000"/>
<path d="M2.20488 28.5742C2.12644 28.5742 2.05683 28.5213 2.0382 28.4429C2.01565 28.3507 2.07153 28.2566 2.1637 28.234L19.4951 23.9759C19.599 23.9563 19.6824 24.0102 19.7039 24.1024C19.7265 24.1946 19.6706 24.2887 19.5784 24.3112L2.24605 28.5693C2.23135 28.5723 2.21762 28.5742 2.20488 28.5742Z" fill="#000"/>
<path d="M22.9257 30.3518C22.9208 30.3518 22.9159 30.3518 22.911 30.3509L2.19018 28.5733C2.09606 28.5655 2.02448 28.4821 2.03233 28.387C2.04017 28.2919 2.12645 28.2203 2.21959 28.2301L22.9404 30.0087C23.0345 30.0165 23.1061 30.0999 23.0983 30.195C23.0894 30.2842 23.0139 30.3518 22.9257 30.3518Z" fill="#000"/>
<path d="M21.2306 35.7699C21.21 35.7699 21.1904 35.7669 21.1698 35.7581L2.14419 28.5626C2.05497 28.5292 2.00987 28.4302 2.04321 28.34C2.0785 28.2508 2.17557 28.2027 2.26577 28.24L21.2914 35.4355C21.3806 35.4689 21.4257 35.5679 21.3924 35.6581C21.3649 35.7277 21.3002 35.7699 21.2306 35.7699Z" fill="#000"/>
<path d="M18.9029 40.8239C18.846 40.8239 18.7902 40.7954 18.7578 40.7435L7.86696 23.4101C7.81598 23.3297 7.84049 23.2228 7.92089 23.1719C8.00031 23.1209 8.10815 23.1454 8.15816 23.2268L19.048 40.5591C19.099 40.6395 19.0745 40.7464 18.9941 40.7974C18.9657 40.815 18.9333 40.8239 18.9029 40.8239Z" fill="#000"/>
<path d="M18.9032 40.8239C18.9002 40.8239 18.8993 40.8239 18.8963 40.8239C18.8002 40.82 18.7267 40.7396 18.7306 40.6445L19.364 24.1366C19.3679 24.0435 19.4434 23.9709 19.5365 23.9709C19.5395 23.9709 19.5405 23.9709 19.5434 23.9709C19.6395 23.9749 19.713 24.0553 19.7091 24.1504L19.0757 40.6582C19.0708 40.7513 18.9953 40.8239 18.9032 40.8239Z" fill="#000"/>
<path d="M12.9557 41.222C12.9351 41.222 12.9135 41.2181 12.8939 41.2103C12.8047 41.175 12.7606 41.0759 12.7959 40.9867L19.3757 24.0808C19.408 23.9926 19.51 23.9504 19.5982 23.9828C19.6874 24.0181 19.7316 24.1171 19.6963 24.2063L13.1165 41.1122C13.091 41.1799 13.0243 41.222 12.9557 41.222Z" fill="#000"/>
<path d="M19.5353 24.3161C19.5 24.3161 19.4638 24.3053 19.4334 24.2827C19.3569 24.2258 19.3402 24.118 19.3971 24.0415L22.763 19.4707C22.8179 19.3942 22.9277 19.3765 23.0042 19.4344C23.0807 19.4913 23.0973 19.5991 23.0405 19.6756L19.6746 24.2464C19.6412 24.2915 19.5883 24.3161 19.5353 24.3161Z" fill="#000"/>
<path d="M19.5354 24.3161C19.46 24.3161 19.3913 24.267 19.3698 24.1906C19.3443 24.0994 19.3962 24.0043 19.4884 23.9778L30.2273 20.91C30.3204 20.8835 30.4145 20.9355 30.44 21.0286C30.4655 21.1198 30.4135 21.2149 30.3214 21.2414L19.5825 24.3092C19.5668 24.3141 19.5521 24.3161 19.5354 24.3161Z" fill="#000"/>
<path d="M19.5355 24.3162C19.4561 24.3162 19.3845 24.2613 19.3669 24.18L17.6354 16.0393C17.6148 15.9461 17.6746 15.855 17.7678 15.8354C17.8619 15.8148 17.9521 15.8746 17.9727 15.9677L19.7042 24.1084C19.7247 24.2015 19.6649 24.2927 19.5718 24.3123C19.56 24.3143 19.5483 24.3162 19.5355 24.3162Z" fill="#000"/>
<path d="M36.9 26.986C36.8921 26.986 36.8823 26.985 36.8745 26.984L19.5097 24.3142C19.4156 24.3005 19.3509 24.2123 19.3646 24.1172C19.3793 24.024 19.4735 23.9593 19.5617 23.973L36.9264 26.6428C37.0206 26.6565 37.0853 26.7448 37.0716 26.8399C37.0578 26.9242 36.9843 26.986 36.9 26.986Z" fill="#000"/>
<path d="M43.9064 35.1178C43.8947 35.1178 43.8819 35.1168 43.8692 35.1139L27.9222 31.5931C27.829 31.5725 27.7712 31.4803 27.7918 31.3872C27.8123 31.2941 27.8957 31.2352 27.9976 31.2558L43.9447 34.7766C44.0378 34.7972 44.0957 34.8894 44.0751 34.9825C44.0574 35.0629 43.9858 35.1178 43.9064 35.1178Z" fill="#000"/>
<path d="M26.9037 40.9779C26.8968 40.9779 26.8919 40.9769 26.885 40.9769C26.789 40.9671 26.7223 40.8808 26.7331 40.7867L27.788 31.4048C27.7988 31.3107 27.888 31.2469 27.9782 31.2528C28.0743 31.2626 28.141 31.3489 28.1302 31.443L27.0753 40.8249C27.0655 40.9122 26.99 40.9779 26.9037 40.9779Z" fill="#000"/>
<path d="M26.9038 40.9779C26.8685 40.9779 26.8341 40.9681 26.8037 40.9456C26.7253 40.8907 26.7077 40.7828 26.7635 40.7054L36.7602 26.7124C36.8151 26.6339 36.9249 26.6153 37.0004 26.6722C37.0789 26.7271 37.0965 26.8349 37.0406 26.9124L27.044 40.9063C27.0106 40.9534 26.9577 40.9779 26.9038 40.9779Z" fill="#000"/>
<path d="M27.9587 31.5959C27.9449 31.5959 27.9322 31.5949 27.9165 31.591L22.8829 30.3468C22.7917 30.3242 22.7348 30.2301 22.7574 30.138C22.7799 30.0468 22.8682 29.9889 22.9662 30.0115L27.9998 31.2557C28.091 31.2782 28.1479 31.3723 28.1253 31.4645C28.1067 31.5439 28.0371 31.5959 27.9587 31.5959Z" fill="#000"/>
<path d="M21.2307 35.7698C21.1376 35.7698 21.0611 35.6953 21.0582 35.6022C21.0552 35.5071 21.1307 35.4276 21.2249 35.4247L43.9007 34.7727C43.9036 34.7727 43.9056 34.7727 43.9056 34.7727C43.9987 34.7727 44.0752 34.8472 44.0782 34.9404C44.0811 35.0355 44.0056 35.1149 43.9115 35.1178L21.2366 35.7698C21.2337 35.7698 21.2307 35.7698 21.2307 35.7698Z" fill="#000"/>
<path d="M42.816 49.3891C42.7974 49.3891 42.7788 49.3862 42.7592 49.3793C42.669 49.3479 42.6219 49.2499 42.6523 49.1597L49.3615 29.7899C49.3929 29.7007 49.4919 29.6536 49.5811 29.6831C49.6713 29.7144 49.7184 29.8125 49.688 29.9027L42.9788 49.2724C42.9552 49.345 42.8876 49.3891 42.816 49.3891Z" fill="#000"/>
<path d="M42.0104 22.723C41.9751 22.723 41.9408 22.7122 41.9094 22.6906L28.8939 13.345C28.8174 13.2891 28.7998 13.1822 28.8547 13.1048C28.9096 13.0263 29.0175 13.0087 29.0959 13.0646L42.1114 22.4102C42.1878 22.4661 42.2055 22.573 42.1506 22.6504C42.1172 22.6975 42.0643 22.723 42.0104 22.723Z" fill="#000"/>
<path d="M42.0105 22.7228C42.0036 22.7228 41.9957 22.7219 41.9889 22.7219L30.2529 21.2473C30.1588 21.2355 30.0911 21.1492 30.1029 21.0551C30.1147 20.961 30.2009 20.8923 30.2951 20.9051L42.031 22.3797C42.1252 22.3914 42.1928 22.4777 42.1811 22.5719C42.1712 22.6591 42.0967 22.7228 42.0105 22.7228Z" fill="#000"/>
<path d="M59.3526 24.3426C59.3477 24.3426 59.3418 24.3426 59.3369 24.3417L41.9947 22.722C41.9006 22.7131 41.83 22.6288 41.8398 22.5337C41.8476 22.4386 41.9378 22.3631 42.027 22.3778L59.3692 23.9975C59.4634 24.0063 59.534 24.0907 59.5241 24.1858C59.5153 24.275 59.4398 24.3426 59.3526 24.3426Z" fill="#000"/>
<path d="M82.3134 46.7342C82.2301 46.7342 82.1575 46.6744 82.1438 46.59L79.2387 29.2714C79.223 29.1773 79.2858 29.089 79.3799 29.0733C79.4672 29.0518 79.5623 29.1204 79.578 29.2145L82.483 46.5332C82.4987 46.6273 82.436 46.7155 82.3419 46.7312C82.3321 46.7332 82.3232 46.7342 82.3134 46.7342Z" fill="#000"/>
<path d="M75.2337 46.141C75.22 46.141 75.2053 46.1401 75.1916 46.1361C75.0984 46.1136 75.0435 46.0195 75.0661 45.9273L79.2408 29.2018C79.2624 29.1096 79.3605 29.0479 79.4497 29.0763C79.5428 29.0989 79.5977 29.193 79.5752 29.2851L75.4004 46.0106C75.3818 46.0891 75.3102 46.141 75.2337 46.141Z" fill="#000"/>
<path d="M75.2338 46.1409C75.1975 46.1409 75.1612 46.1292 75.1299 46.1066C75.0544 46.0498 75.0387 45.9409 75.0965 45.8645L85.4834 32.0548C85.5403 31.9783 85.6491 31.9656 85.7246 32.0205C85.8001 32.0774 85.8158 32.1862 85.7579 32.2627L75.3711 46.0723C75.3377 46.1174 75.2867 46.1409 75.2338 46.1409Z" fill="#000"/>
<path d="M53.9353 50.5755C53.8559 50.5755 53.7834 50.5196 53.7667 50.4382C53.7461 50.3451 53.8069 50.2539 53.9 50.2343L75.1984 45.8007C75.2944 45.787 75.3827 45.8409 75.4013 45.935C75.4219 46.0282 75.3611 46.1193 75.268 46.139L53.9697 50.5726C53.9579 50.5735 53.9471 50.5755 53.9353 50.5755Z" fill="#000"/>
<path d="M55.1454 57.0229C55.1189 57.0229 55.0904 57.017 55.065 57.0023C54.9816 56.9582 54.9493 56.8542 54.9934 56.7699L62.5154 42.5054C62.5595 42.422 62.6634 42.3877 62.7487 42.4328C62.8321 42.4769 62.8644 42.5809 62.8203 42.6652L55.2973 56.9307C55.266 56.9895 55.2071 57.0229 55.1454 57.0229Z" fill="#000"/>
<path d="M55.1453 57.023C55.0845 57.023 55.0257 56.9906 54.9933 56.9328C54.9492 56.8494 54.9796 56.7445 55.0629 56.6994L75.1514 45.8174C75.2318 45.7723 75.3377 45.8017 75.3857 45.887C75.4298 45.9704 75.3994 46.0753 75.3161 46.1204L55.2267 57.0024C55.2012 57.0161 55.1728 57.023 55.1453 57.023Z" fill="#000"/>
<path d="M55.1452 57.0229C55.0628 57.0229 54.9913 56.965 54.9756 56.8817L53.7657 50.4333C53.7481 50.3392 53.8098 50.2489 53.903 50.2323C53.9922 50.2137 54.0863 50.2764 54.1049 50.3705L55.3148 56.8189C55.3325 56.9121 55.2707 57.0033 55.1776 57.0199C55.1668 57.0219 55.156 57.0229 55.1452 57.0229Z" fill="#000"/>
<path d="M46.9174 55.8141C46.8997 55.8141 46.8811 55.8112 46.8625 55.8053C46.7723 55.7749 46.7232 55.6769 46.7546 55.5867L51.0941 42.6663C51.1235 42.5761 51.2157 42.5261 51.3127 42.5575C51.4029 42.5879 51.4519 42.6859 51.4206 42.7761L47.0811 55.6965C47.0556 55.769 46.9889 55.8141 46.9174 55.8141Z" fill="#000"/>
<path d="M32.7872 48.9863C32.7441 48.9863 32.7009 48.9706 32.6676 48.9373C32.599 48.8716 32.598 48.7618 32.6637 48.6931L39.7768 41.3917C39.8425 41.326 39.9523 41.3221 40.021 41.3888C40.0896 41.4545 40.0906 41.5643 40.0249 41.6329L32.9117 48.9343C32.8774 48.9686 32.8323 48.9863 32.7872 48.9863Z" fill="#000"/>
<path d="M32.7874 48.9861C32.7149 48.9861 32.6472 48.94 32.6227 48.8674C32.5933 48.7772 32.6433 48.6792 32.7335 48.6498L51.2032 42.5573C51.2944 42.5279 51.3914 42.5779 51.4218 42.6671C51.4513 42.7573 51.4012 42.8553 51.311 42.8847L32.8413 48.9773C32.8237 48.9831 32.8051 48.9861 32.7874 48.9861Z" fill="#000"/>
<path d="M49.5254 30.0203C49.4381 30.0203 49.3626 29.9536 49.3538 29.8644L47.5439 10.8025C47.5341 10.7074 47.6047 10.624 47.6988 10.6142C47.7919 10.6015 47.8782 10.675 47.8861 10.7701L49.6969 29.831C49.7067 29.9261 49.6362 30.0095 49.542 30.0193C49.5362 30.0203 49.5312 30.0203 49.5254 30.0203Z" fill="#000"/>
<path d="M49.5253 30.0205C49.4998 30.0205 49.4724 30.0146 49.4488 30.0018C49.3635 29.9597 49.3292 29.8567 49.3704 29.7704L54.7531 18.9355C54.7972 18.8512 54.9031 18.8178 54.9845 18.858C55.0698 18.9002 55.1041 19.0031 55.0629 19.0894L49.6802 29.9244C49.6498 29.9852 49.589 30.0205 49.5253 30.0205Z" fill="#000"/>
<path d="M42.0104 22.7229C41.9349 22.7229 41.8653 22.6719 41.8447 22.5964C41.8192 22.5042 41.8731 22.4101 41.9643 22.3846L54.8612 18.8472C54.9504 18.8207 55.0484 18.8766 55.0729 18.9678C55.0984 19.0599 55.0445 19.154 54.9533 19.1795L42.0565 22.717C42.0418 22.7209 42.0251 22.7229 42.0104 22.7229Z" fill="#000"/>
<path d="M54.9079 19.1855C54.8471 19.1855 54.7893 19.1541 54.7569 19.0973C54.7109 19.0139 54.7412 18.909 54.8226 18.863L70.1284 10.2899C70.2137 10.2409 70.3157 10.2723 70.3637 10.3556C70.4098 10.4389 70.3794 10.5438 70.298 10.5899L54.9922 19.163C54.9658 19.1787 54.9364 19.1855 54.9079 19.1855Z" fill="#000"/>
<path d="M58.7986 12.3694C58.7652 12.3694 58.7309 12.3596 58.7015 12.3399L43.6438 2.15797C43.5653 2.10503 43.5437 1.99718 43.5977 1.91874C43.6516 1.83835 43.7594 1.81972 43.8379 1.87266L58.8956 12.0546C58.9741 12.1076 58.9956 12.2154 58.9417 12.2939C58.9084 12.3439 58.8544 12.3694 58.7986 12.3694Z" fill="#000"/>
<path d="M61.694 5.59153C61.6832 5.59153 61.6724 5.59054 61.6616 5.58858L43.7086 2.18446C43.6155 2.16583 43.5537 2.07563 43.5714 1.98249C43.589 1.88837 43.6792 1.82366 43.7733 1.84523L61.7264 5.24935C61.8195 5.26798 61.8813 5.35818 61.8636 5.45132C61.8479 5.53368 61.7754 5.59153 61.694 5.59153Z" fill="#000"/>
<path d="M35.4551 7.91123C35.4483 7.91123 35.4414 7.91025 35.4345 7.91025L24.4221 6.6435C24.328 6.63272 24.2604 6.54742 24.2711 6.4533C24.2819 6.35721 24.3731 6.28858 24.4623 6.30133L35.4747 7.56807C35.5689 7.57885 35.6365 7.66415 35.6257 7.75828C35.6169 7.84652 35.5414 7.91123 35.4551 7.91123Z" fill="#000"/>
<path d="M30.2745 21.2482C30.2157 21.2482 30.1588 21.2178 30.1264 21.1629C30.0784 21.0805 30.1049 20.9747 30.1872 20.9276L47.6275 10.6388C47.7079 10.5878 47.8137 10.6182 47.8628 10.6995C47.9108 10.7819 47.8843 10.8878 47.802 10.9348L30.3627 21.2237C30.3353 21.2404 30.3049 21.2482 30.2745 21.2482Z" fill="#000"/>
<path d="M49.5253 30.0205C49.5115 30.0205 49.4988 30.0195 49.4851 30.0156L36.8598 26.9811C36.7667 26.9585 36.7098 26.8664 36.7333 26.7732C36.7559 26.681 36.853 26.6232 36.9412 26.6457L49.5664 29.6802C49.6596 29.7028 49.7165 29.795 49.6929 29.8881C49.6733 29.9665 49.6037 30.0205 49.5253 30.0205Z" fill="#000"/>
<path d="M51.2568 42.8937C51.2108 42.8937 51.1657 42.8751 51.1313 42.8398L43.7809 35.0638C43.7152 34.9942 43.7191 34.8854 43.7878 34.8197C43.8574 34.755 43.9672 34.7569 44.0319 34.8266L51.3823 42.6025C51.448 42.6721 51.4441 42.781 51.3755 42.8466C51.3421 42.878 51.3 42.8937 51.2568 42.8937Z" fill="#000"/>
<path d="M55.714 38.4454C55.6228 38.4454 55.5454 38.3728 55.5414 38.2807L54.7355 19.0207C54.7316 18.9246 54.8051 18.8452 54.9012 18.8413C54.9012 18.8413 54.9051 18.8413 54.9081 18.8413C54.9992 18.8413 55.0767 18.9139 55.0806 19.006L55.8856 38.266C55.8895 38.3621 55.816 38.4415 55.7199 38.4454C55.7199 38.4454 55.716 38.4454 55.714 38.4454Z" fill="#000"/>
<path d="M53.9356 50.5754C53.9278 50.5754 53.9199 50.5744 53.9101 50.5735C53.816 50.5597 53.7513 50.4725 53.765 50.3783L55.5436 38.2492C55.5573 38.1551 55.6328 38.0884 55.7406 38.1041C55.8347 38.1178 55.8995 38.2051 55.8857 38.2992L54.1072 50.4283C54.0925 50.5127 54.0199 50.5754 53.9356 50.5754Z" fill="#000"/>
<path d="M43.9064 35.1179C43.8583 35.1179 43.8093 35.0973 43.7759 35.0581L36.7706 26.9262C36.7089 26.8537 36.7167 26.7448 36.7883 26.6831C36.8608 26.6193 36.9707 26.6281 37.0324 26.7017L44.0377 34.8335C44.0995 34.9061 44.0917 35.0149 44.0201 35.0767C43.9858 35.1041 43.9466 35.1179 43.9064 35.1179Z" fill="#000"/>
<path d="M36.9001 26.9859C36.804 26.9859 36.7275 26.9084 36.7275 26.8133V11.6281C36.7275 11.533 36.804 11.4556 36.9001 11.4556C36.9962 11.4556 37.0727 11.533 37.0727 11.6281V26.8133C37.0727 26.9084 36.9962 26.9859 36.9001 26.9859Z" fill="#000"/>
<path d="M42.0104 22.7229C42.0065 22.7229 42.0006 22.7229 41.9957 22.7219C41.9016 22.7141 41.831 22.6308 41.8379 22.5357L43.5674 2.00014C43.5752 1.90994 43.6507 1.84229 43.7399 1.84229C43.7439 1.84229 43.7497 1.84229 43.7546 1.84327C43.8488 1.85111 43.9194 1.93445 43.9125 2.02955L42.183 22.5651C42.1751 22.6543 42.0996 22.7229 42.0104 22.7229Z" fill="#000"/>
<path d="M36.9 11.8007C36.8784 11.8007 36.8558 11.7968 36.8343 11.7879L24.3767 6.63174C24.2894 6.59449 24.2473 6.49448 24.2835 6.40624C24.3188 6.31898 24.4179 6.2778 24.5081 6.31212L36.9657 11.4683C37.0529 11.5056 37.0951 11.6056 37.0588 11.6938C37.0323 11.7605 36.9676 11.8007 36.9 11.8007Z" fill="#000"/>
<path d="M30.2745 21.2484C30.2167 21.2484 30.1618 21.219 30.1274 21.168L19.7915 4.61897C19.7415 4.53857 19.7661 4.4317 19.8464 4.38072C19.9288 4.3317 20.0337 4.35621 20.0847 4.43562L30.4206 20.9837C30.4706 21.0641 30.4461 21.1709 30.3657 21.2219C30.3382 21.2396 30.3059 21.2484 30.2745 21.2484Z" fill="#000"/>
<path d="M71.9061 28.6782C71.8659 28.6782 71.8238 28.6645 71.7914 28.6341L62.4075 20.2601C62.336 20.1963 62.3291 20.0875 62.3928 20.0169C62.4566 19.9453 62.5654 19.9375 62.637 20.0032L72.0208 28.3772C72.0924 28.4409 72.0993 28.5498 72.0346 28.6204C72.0003 28.6586 71.9532 28.6782 71.9061 28.6782Z" fill="#000"/>
<path d="M72.2434 35.81C72.1964 35.81 72.1493 35.7904 72.114 35.7522C72.0503 35.6816 72.0572 35.5727 72.1287 35.509L79.2948 29.1145C79.3635 29.0498 79.4743 29.0576 79.539 29.1282C79.6027 29.1988 79.5958 29.3077 79.5243 29.3714L72.3572 35.7659C72.3248 35.7963 72.2836 35.81 72.2434 35.81Z" fill="#000"/><path
            d="M139.097 19.9573L125.76 48.1129H124.671L111.334 19.9573H112.484L125.216 46.9335L137.978 19.9573H139.097ZM160.569 31.7215V32.7195H145.145V31.7215H160.569ZM206.84 19.7456C214.279 19.7456 219.058 24.0702 219.058 31.3889V47.9919H217.999V31.3889C217.999 24.9775 214.038 20.7436 206.84 20.7436C200.428 20.7436 195.68 25.4916 195.68 31.6611V47.9919H194.622V31.3889C194.622 24.9775 190.66 20.7436 183.463 20.7436C177.051 20.7436 172.303 25.4916 172.303 31.6611V47.9919H171.245V19.9573H172.303V27.0642C174.027 22.7698 178.17 19.7456 183.553 19.7456C189.632 19.7456 193.957 22.7093 195.257 27.8808C196.799 23.1025 201.215 19.7456 206.84 19.7456ZM256.286 19.9573V47.9919H255.228V39.4031C253.232 44.635 248.363 48.2339 242.284 48.2339C234.3 48.2339 228.191 42.1249 228.191 33.9897C228.191 25.8243 234.3 19.7456 242.284 19.7456C248.363 19.7456 253.232 23.3444 255.228 28.5763V19.9573H256.286ZM242.284 20.7436C234.844 20.7436 229.28 26.4594 229.28 33.9897C229.28 41.4898 234.844 47.2056 242.284 47.2056C249.693 47.2056 255.258 41.5201 255.258 33.9897C255.258 26.4291 249.693 20.7436 242.284 20.7436ZM280.48 19.7456C287.859 19.7456 292.607 24.0702 292.607 31.3889V47.9919H291.549V31.3889C291.549 24.9775 287.587 20.7436 280.389 20.7436C273.978 20.7436 269.23 25.4916 269.23 31.6611V47.9919H268.171V19.9573H269.23V27.0642C270.954 22.7698 275.097 19.7456 280.48 19.7456ZM329.836 19.9573V47.9919H328.777V39.4031C326.781 44.635 321.912 48.2339 315.833 48.2339C307.849 48.2339 301.74 42.1249 301.74 33.9897C301.74 25.8243 307.849 19.7456 315.833 19.7456C321.912 19.7456 326.781 23.3444 328.777 28.5763V19.9573H329.836ZM315.833 20.7436C308.394 20.7436 302.829 26.4594 302.829 33.9897C302.829 41.4898 308.394 47.2056 315.833 47.2056C323.243 47.2056 328.807 41.5201 328.807 33.9897C328.807 26.4291 323.243 20.7436 315.833 20.7436ZM353.394 19.7456C359.443 19.7456 364.282 23.2839 366.308 28.4251V19.9573H367.366V46.1169C367.366 55.9154 360.259 60.3006 352.941 60.3006C347.951 60.3006 343.687 58.4256 341.055 55.5525L341.63 54.7965C344.17 57.5183 348.193 59.3026 352.941 59.3026C359.685 59.3026 366.308 55.3106 366.308 46.1472V39.5543C364.282 44.6955 359.443 48.2339 353.394 48.2339C345.41 48.2339 339.332 42.1249 339.332 33.9897C339.332 25.8243 345.41 19.7456 353.394 19.7456ZM353.394 20.7436C345.955 20.7436 340.42 26.4594 340.42 33.9897C340.42 41.4898 345.955 47.2056 353.394 47.2056C360.804 47.2056 366.399 41.5201 366.399 33.9897C366.399 26.4291 360.804 20.7436 353.394 20.7436ZM390.713 19.7456C397.881 19.7456 403.566 25.6126 403.748 33.7175C403.748 33.899 403.748 34.0502 403.718 34.2014H377.951C378.042 41.883 383.455 47.2056 390.804 47.2056C395.734 47.2056 398.939 45.2096 401.57 42.2459L402.236 42.9717C398.576 47.1754 394.615 48.2339 390.744 48.2339C382.699 48.2339 376.862 42.2761 376.862 34.02C376.862 25.794 383.032 19.7456 390.713 19.7456ZM390.683 20.7436C383.788 20.7436 378.344 26.036 377.981 33.2337H402.629C402.357 26.036 397.155 20.7436 390.683 20.7436ZM423.526 19.7153C425.522 19.7153 427.488 20.1387 429 21.0158L428.668 21.9835C427.216 21.1367 425.341 20.7133 423.466 20.7133C418.022 20.7133 414.272 25.5521 414.272 31.782V47.9919H413.214V19.9573H414.272V26.6106C415.754 22.5884 419.02 19.7153 423.526 19.7153Z" fill="#000" stroke="black"
            stroke-width="2"
    /></g>
<defs>
<clipPath id="clip0_116_2">
<rect width="429" height="79.9429" fill="#000"/>
</clipPath>
</defs>
</svg>
